<?xml version="1.0" standalone="no"?>
<!DOCTYPE svg PUBLIC "-//W3C//DTD SVG 20010904//EN"
 "http://www.w3.org/TR/2001/REC-SVG-20010904/DTD/svg10.dtd">
<svg version="1.0" xmlns="http://www.w3.org/2000/svg"
 width="788.000000pt" height="719.000000pt" viewBox="0 0 788.000000 719.000000"
 preserveAspectRatio="xMidYMid meet">

<g transform="translate(0.000000,719.000000) scale(0.100000,-0.100000)"
fill="#000000" stroke="none">
<path d="M377 7176 c-3 -8 -1 -16 6 -19 6 -2 14 -36 18 -78 3 -41 8 -81 10
-89 3 -10 -2 -14 -16 -12 -28 5 -29 7 -17 41 12 34 -2 55 -50 80 -15 8 -25 18
-22 23 3 4 -6 8 -20 8 -14 0 -28 5 -32 11 -4 7 -21 9 -43 5 -24 -3 -31 -2 -21
4 13 8 13 9 0 14 -41 13 -70 15 -70 6 0 -5 7 -10 15 -10 12 0 13 -4 6 -19 -7
-13 -6 -24 4 -37 16 -22 20 -58 5 -49 -6 3 -10 0 -10 -7 -1 -9 -5 -7 -14 5
-16 20 -46 23 -46 3 0 -8 -7 -17 -16 -20 -8 -3 -13 -2 -10 3 5 8 -24 20 -46
21 -5 0 -8 -35 -8 -78 l0 -79 29 5 c19 3 30 -1 34 -12 4 -11 1 -15 -11 -14
-55 4 -52 16 -52 -226 l0 -224 34 -6 c19 -4 54 -2 78 3 33 8 45 7 53 -3 6 -7
39 -16 75 -20 35 -4 72 -12 82 -17 12 -6 18 -6 18 1 0 5 10 10 21 10 16 0 20
-5 16 -19 -4 -17 1 -18 60 -15 73 4 105 11 115 28 5 7 8 4 8 -6 0 -10 5 -18
10 -18 6 0 10 7 10 15 0 22 21 18 27 -5 7 -25 42 -37 55 -19 7 11 11 11 15 2
7 -19 23 -16 24 5 0 10 3 12 6 5 2 -7 9 -13 14 -13 6 0 7 5 4 10 -8 13 19 40
39 40 19 0 21 -17 4 -23 -10 -3 -10 -8 2 -21 10 -13 23 -16 45 -13 17 3 42 -1
55 -9 19 -10 21 -13 8 -14 -10 0 -18 -4 -18 -9 0 -5 12 -5 28 1 23 9 36 8 61
-5 27 -13 33 -14 37 -2 3 7 13 13 22 12 9 0 29 3 45 6 19 5 26 4 25 -5 -2 -8
7 -13 22 -13 15 1 28 -7 33 -18 6 -16 14 -18 45 -14 20 4 43 2 51 -2 8 -6 24
-5 38 2 18 8 26 8 32 -1 4 -7 15 -10 24 -6 9 3 15 10 12 14 -9 14 33 22 53 11
11 -6 22 -18 26 -27 4 -11 14 -14 34 -9 26 5 98 -16 88 -26 -2 -2 29 -4 69 -4
40 0 71 3 68 8 -2 4 1 7 6 7 6 0 11 -4 11 -10 0 -5 7 -10 15 -10 8 0 15 -7 15
-16 0 -8 5 -12 10 -9 6 3 10 1 10 -4 0 -19 27 -12 43 12 l16 22 0 -23 c1 -13
7 -22 14 -20 6 1 25 -1 41 -5 21 -6 33 -3 47 9 19 17 34 13 34 -9 0 -7 15 -12
33 -13 18 0 38 -6 44 -12 15 -15 55 -16 64 0 4 7 3 8 -4 4 -7 -4 -12 -2 -12 3
0 16 22 13 65 -8 26 -12 51 -17 72 -14 26 5 33 2 33 -11 0 -10 4 -15 9 -12 5
3 11 -1 15 -9 7 -19 26 -19 26 0 0 8 5 15 11 15 7 0 9 -10 7 -25 -3 -13 0 -26
6 -29 7 -3 7 -5 1 -5 -7 -1 -9 -16 -7 -36 3 -21 0 -35 -7 -35 -6 0 -11 -10
-11 -22 0 -13 -12 -34 -25 -47 -14 -13 -25 -27 -25 -33 0 -5 -5 -6 -11 -2 -8
4 -10 -7 -6 -37 3 -25 0 -50 -6 -57 -6 -8 -12 -24 -13 -35 -2 -40 -16 -87 -26
-87 -5 0 -6 -16 -2 -36 5 -25 3 -39 -7 -44 -19 -12 -29 -3 -30 28 -1 21 -3 18
-9 -13 -6 -30 -5 -43 6 -51 20 -16 18 -21 -11 -28 -15 -4 -25 -13 -25 -24 0
-15 2 -15 10 -2 8 13 10 12 10 -2 0 -10 -4 -18 -10 -18 -5 0 -10 -7 -10 -15 0
-8 -6 -15 -12 -15 -9 0 -8 -3 2 -10 13 -8 12 -11 -5 -24 -11 -8 -23 -12 -27
-10 -5 3 -8 -1 -8 -9 0 -20 -26 -68 -32 -61 -3 3 -8 -7 -12 -21 -4 -14 -11
-25 -16 -25 -6 0 -10 -7 -10 -15 0 -8 -6 -15 -14 -15 -8 0 -19 -13 -24 -29
-13 -36 -49 -74 -62 -66 -6 4 -13 -7 -16 -24 -6 -26 -11 -31 -37 -31 -17 0
-27 -3 -24 -7 12 -11 -13 -31 -33 -26 -14 4 -23 -2 -31 -21 -7 -14 -19 -26
-27 -26 -12 0 -12 3 -2 15 7 9 8 15 2 15 -5 0 -12 -6 -15 -14 -3 -8 -16 -16
-28 -18 -28 -4 -36 -25 -12 -31 10 -3 -10 -5 -44 -6 -64 -1 -112 -16 -126 -38
-4 -7 -18 -13 -30 -13 -18 0 -19 2 -7 10 12 8 11 10 -7 10 -13 0 -23 -4 -23
-10 0 -5 -7 -7 -15 -4 -8 4 -15 2 -15 -4 0 -14 -100 -21 -130 -10 -14 5 -43
11 -65 13 -22 3 -51 7 -65 11 -46 11 -64 9 -68 -7 -2 -9 4 -24 13 -32 8 -9 15
-27 15 -41 0 -22 -4 -26 -29 -26 -16 0 -42 -5 -57 -10 -19 -8 -29 -8 -34 0 -8
13 -60 -4 -60 -20 0 -5 -9 -10 -20 -10 -11 0 -20 -4 -20 -9 0 -5 -9 -11 -19
-14 -13 -3 -22 -17 -27 -42 -6 -32 -3 -40 20 -61 14 -14 26 -35 26 -47 0 -18
-2 -19 -10 -7 -9 13 -10 13 -10 0 0 -18 54 -44 76 -36 18 7 104 -15 104 -26 0
-11 -32 -10 -68 3 -22 7 -36 7 -51 -1 -16 -8 -38 -8 -82 0 -35 6 -65 8 -70 3
-5 -5 -12 -37 -15 -72 -6 -53 -4 -65 9 -73 10 -5 17 -15 17 -23 0 -12 -5 -11
-29 2 -27 16 -30 16 -46 -1 -12 -11 -19 -37 -22 -74 -4 -56 -3 -57 29 -73 18
-9 33 -22 33 -30 0 -8 5 -17 10 -21 6 -4 1 -8 -10 -9 -11 0 -15 -3 -8 -5 17
-7 -1 -60 -18 -54 -8 3 -74 5 -147 6 -137 0 -215 -8 -429 -48 l-123 -23 0
-131 0 -131 168 -5 c138 -5 416 -33 431 -45 2 -1 5 -33 7 -70 2 -52 1 -62 -7
-44 -14 36 -21 19 -10 -28 5 -26 5 -41 -1 -41 -5 0 -8 -8 -6 -18 2 -11 -3 -27
-11 -36 -13 -15 -13 -19 0 -27 11 -7 10 -10 -7 -15 -21 -6 -25 -37 -9 -64 4
-6 0 -19 -8 -28 -8 -9 -17 -26 -20 -37 -4 -18 -5 -18 -6 3 0 12 -6 22 -11 22
-6 0 -10 -6 -9 -12 1 -7 -1 -20 -4 -28 -3 -8 -7 -24 -9 -35 -2 -11 -12 -21
-25 -23 -15 -2 -20 -9 -17 -25 l5 -22 -12 23 c-7 12 -19 22 -28 22 -10 0 -12
-3 -5 -8 6 -4 13 -17 16 -28 4 -17 2 -20 -13 -17 -13 4 -19 0 -19 -11 0 -9 -8
-16 -17 -17 -10 0 -13 -3 -7 -5 15 -6 -5 -54 -22 -54 -7 0 -14 -9 -17 -21 -4
-16 -12 -20 -34 -17 -23 2 -27 0 -25 -16 2 -10 -2 -23 -10 -27 -10 -7 -10 -9
0 -9 6 0 12 -6 12 -14 0 -27 -60 -37 -161 -26 -51 5 -97 10 -101 10 -5 0 -8
-682 -8 -1515 l0 -1515 1445 0 c906 1 1445 5 1445 10 0 6 -8 10 -19 10 -10 0
-24 7 -31 15 -9 10 -17 12 -23 6 -13 -13 -37 -2 -37 16 0 13 3 13 15 3 13 -10
19 -10 35 5 10 9 24 14 31 9 8 -4 10 -3 5 4 -9 15 -46 16 -46 2 0 -5 -4 -10
-8 -10 -5 0 -7 15 -6 33 2 17 1 24 -2 15 -3 -11 -11 -15 -21 -11 -10 4 -14 2
-9 -5 3 -6 2 -13 -3 -17 -6 -3 -8 -12 -4 -20 3 -8 0 -15 -7 -15 -7 0 -10 13
-8 33 3 31 -19 67 -42 67 -5 0 -10 5 -10 11 0 5 -5 7 -11 3 -7 -4 -9 0 -5 14
6 16 1 21 -23 27 -26 6 -53 45 -30 45 15 0 10 27 -6 34 -9 3 -15 0 -15 -9 0
-8 -4 -15 -9 -15 -15 0 -21 30 -11 51 8 15 7 19 -5 19 -8 0 -15 7 -15 15 0 8
-7 15 -15 15 -18 0 -20 21 -2 39 10 11 10 13 -1 7 -6 -4 -12 -2 -12 3 0 6 6
11 13 11 6 0 4 5 -6 11 -21 12 -23 33 -2 25 9 -3 15 0 15 10 0 9 -6 14 -12 12
-19 -7 -40 19 -36 44 2 15 9 22 21 22 9 -1 17 2 17 7 0 19 27 8 40 -16 17 -31
40 -33 40 -2 0 22 6 24 63 18 4 -1 7 -6 7 -12 0 -6 -7 -8 -16 -5 -10 4 -14 1
-12 -6 3 -7 15 -15 27 -18 12 -3 22 -8 22 -12 -2 -25 1 -29 21 -26 20 3 23 -1
24 -39 0 -24 -4 -43 -8 -43 -5 0 -6 -5 -3 -10 4 -6 12 -9 18 -8 7 1 25 -6 40
-16 21 -14 25 -21 15 -27 -8 -6 -1 -9 20 -9 28 0 33 -3 30 -22 -2 -16 4 -23
27 -30 64 -20 62 -18 41 -33 -22 -16 -11 -39 15 -32 12 3 19 0 19 -9 0 -19 10
-18 27 4 12 15 13 15 8 -8 -5 -20 2 -33 32 -62 43 -42 52 -46 64 -26 5 8 7 -3
5 -29 -2 -23 -7 -46 -11 -52 -3 -6 1 -11 9 -11 9 0 16 5 16 10 0 6 5 10 10 10
6 0 10 -7 10 -15 0 -13 269 -15 2365 -15 l2365 0 0 1950 c0 1850 -1 1950 -17
1952 -10 1 -45 3 -78 4 -151 6 -249 15 -260 24 -7 6 -48 10 -91 9 -44 0 -103
2 -131 6 -37 5 -53 3 -53 -5 0 -8 -26 -9 -92 -5 -157 9 -178 14 -178 36 0 10
5 19 10 19 6 0 10 16 10 36 0 33 -2 35 -17 23 -15 -13 -16 -11 -10 10 3 14 1
31 -5 38 -7 9 -7 13 1 13 6 0 11 7 11 16 0 8 5 12 10 9 6 -3 10 -2 10 4 0 5
10 13 21 16 12 4 17 10 12 14 -18 12 -22 39 -8 58 8 10 14 29 14 43 -1 24 -1
24 -7 3 -8 -25 -25 -18 -30 12 -2 11 -8 23 -14 26 -5 3 -7 22 -3 43 5 26 12
36 26 36 11 0 19 4 19 9 0 5 14 14 30 21 35 15 39 30 8 30 -22 1 -22 1 -3 12
11 7 26 18 33 25 7 7 18 13 23 13 6 0 8 4 5 9 -3 4 -17 6 -31 3 -14 -2 -25 0
-25 6 0 6 -10 12 -22 14 -28 4 -36 28 -9 28 12 0 21 5 21 10 0 6 14 10 30 10
24 0 30 4 30 21 0 16 -5 20 -20 16 -15 -4 -20 0 -20 14 0 12 -15 26 -39 39
-22 11 -43 25 -47 31 -5 8 -9 8 -14 -1 -5 -9 -17 -6 -44 12 -27 17 -36 30 -36
51 0 15 5 27 11 27 6 0 7 5 2 13 -10 15 -10 67 0 60 12 -7 8 32 -5 46 -7 6
-13 17 -13 24 0 7 -8 11 -18 9 -11 -2 -17 4 -17 18 0 11 -3 19 -8 17 -8 -2
-12 6 -12 24 0 8 5 8 15 -1 16 -13 20 -3 9 24 -3 8 -12 12 -20 9 -8 -3 -14 1
-14 10 0 9 -10 19 -22 23 -28 9 -48 28 -48 48 0 9 -7 16 -15 16 -8 0 -15 5
-15 11 0 5 -4 8 -9 5 -11 -7 -41 71 -41 106 0 32 -2 34 -59 43 -35 6 -42 5
-35 -6 6 -12 5 -12 -9 0 -15 12 -17 11 -17 -8 0 -11 5 -21 10 -21 6 0 10 -8 8
-17 -2 -12 3 -17 15 -15 19 3 24 -14 5 -21 -25 -8 -49 5 -43 23 4 13 -4 25
-26 41 -27 19 -29 23 -15 31 13 7 14 12 4 22 -17 16 -48 27 -48 17 0 -5 7 -12
16 -15 16 -6 11 -26 -7 -26 -6 0 -7 5 -3 11 4 8 -1 9 -16 4 -19 -6 -21 -4 -15
14 5 17 2 21 -18 21 -32 0 -97 27 -97 41 0 5 -4 8 -9 5 -13 -9 0 37 16 52 17
18 17 31 -2 38 -8 4 -15 14 -15 24 0 10 -9 20 -20 23 -11 3 -20 10 -20 15 0 6
9 8 20 5 11 -3 20 0 20 6 0 6 -17 11 -39 11 -31 0 -40 4 -44 20 -4 16 -11 19
-29 15 -36 -9 -79 37 -71 76 3 18 1 29 -6 29 -6 0 -11 7 -11 16 0 8 -4 12 -10
9 -5 -3 -10 1 -10 10 0 12 -5 15 -16 11 -10 -4 -18 0 -21 13 -3 11 -14 22 -25
24 -16 5 -19 11 -14 32 4 17 3 24 -4 20 -6 -4 -10 4 -10 19 0 14 -4 26 -10 26
-5 0 -10 9 -10 20 0 14 -7 20 -24 20 -19 0 -26 7 -31 30 -4 16 -12 28 -18 27
-13 -2 -13 3 -3 44 4 20 -1 33 -19 53 -14 15 -25 31 -25 37 0 5 -7 9 -15 9 -8
0 -15 9 -15 19 0 14 -5 18 -21 14 -15 -4 -22 0 -26 16 -3 11 -11 21 -18 21 -7
0 -15 9 -18 20 -7 27 -23 25 -31 -2 -4 -18 -8 -20 -18 -10 -10 10 -10 15 -1
20 18 11 4 55 -16 49 -17 -4 -41 15 -41 33 0 5 -4 10 -10 10 -5 0 -10 -5 -10
-11 0 -8 -5 -8 -15 1 -12 10 -15 10 -15 -4 0 -26 4 -31 21 -29 9 1 19 -6 22
-16 4 -16 -1 -19 -35 -17 -37 1 -39 3 -33 26 3 14 7 33 8 42 1 9 6 14 11 11 5
-4 7 1 3 11 -5 12 0 19 16 26 24 9 18 12 -25 14 -17 1 -28 -4 -28 -11 0 -7 -4
-13 -9 -13 -5 0 -16 -3 -25 -6 -11 -4 -16 -1 -16 10 0 9 -7 16 -16 16 -9 0
-18 9 -21 20 -7 25 -39 22 -37 -3 2 -14 -1 -15 -12 -6 -8 6 -14 16 -14 21 0
14 -27 38 -42 38 -7 0 -26 -9 -43 -20 -19 -12 -38 -17 -53 -13 -15 3 -27 1
-32 -8 -7 -10 -12 -10 -22 -1 -11 9 -17 9 -26 0 -17 -17 -15 -28 4 -28 12 0
15 -7 12 -30 -2 -16 0 -32 6 -34 6 -2 3 -5 -6 -5 -9 -1 -20 4 -24 10 -8 14
-116 2 -126 -14 -4 -7 -11 -7 -22 2 -20 17 -20 35 0 55 14 15 14 16 0 16 -9 0
-16 5 -16 11 0 5 -9 30 -20 55 -12 24 -20 50 -19 57 1 6 1 19 0 27 -1 13 -3
13 -10 1 -13 -20 -42 4 -34 26 4 11 2 14 -5 9 -7 -4 -12 -3 -12 3 0 5 -18 12
-40 16 -22 4 -42 11 -46 16 -3 5 -16 9 -30 9 -15 0 -24 6 -24 16 0 14 -3 14
-15 4 -12 -10 -15 -10 -15 2 0 11 -7 14 -25 10 -27 -5 -32 7 -15 38 8 15 5 22
-12 35 -20 14 -23 14 -26 0 -2 -8 -9 -15 -17 -15 -21 0 -5 38 19 44 11 2 4 4
-16 2 -21 -1 -38 2 -38 6 0 4 13 8 30 8 22 0 28 4 24 15 -4 11 1 15 17 16 19
1 18 3 -9 10 -27 8 -31 13 -22 24 8 10 8 15 0 20 -6 4 -9 13 -7 19 6 14 -7 40
-20 42 -51 9 -73 39 -29 39 15 0 22 -5 19 -12 -8 -20 4 -15 30 11 13 12 30 25
38 28 9 4 1 11 -23 22 -21 9 -38 21 -38 26 0 12 62 8 73 -5 5 -6 6 -2 3 8 -3
10 -6 31 -6 47 0 24 -4 28 -25 25 -31 -3 -31 2 -2 26 28 23 43 24 56 2 9 -15
10 -14 11 9 0 27 -1 27 -43 22 -32 -5 -46 -2 -56 10 -12 14 -10 16 13 16 14 0
26 5 26 10 0 6 -85 10 -235 10 l-235 0 -1 -37 c-1 -21 -1 -44 0 -51 3 -21 -23
-72 -36 -72 -17 0 -16 -8 2 -60 18 -52 18 -50 0 -50 -17 0 -20 -16 -6 -25 12
-7 8 -59 -8 -98 -9 -23 -15 -27 -34 -21 -12 3 -23 7 -23 8 -1 0 4 35 11 76 8
41 11 87 8 102 -3 16 0 34 6 42 11 13 10 50 -1 62 -4 3 -4 13 -1 22 3 10 -6 4
-21 -12 -14 -16 -24 -37 -22 -45 3 -9 2 -32 -3 -51 -4 -19 -3 -50 2 -69 6 -25
5 -36 -5 -42 -11 -8 -11 -11 1 -18 11 -7 9 -10 -8 -16 -17 -5 -19 -10 -11 -25
14 -26 13 -27 -20 -22 -19 3 -30 0 -30 -7 0 -7 -5 -9 -11 -6 -7 5 -5 13 5 24
21 23 20 41 0 41 -12 0 -15 -6 -11 -21 3 -13 0 -22 -10 -26 -20 -8 -73 52 -86
97 l-10 35 -10 -27 c-6 -14 -20 -29 -31 -32 -25 -7 -35 2 -16 14 8 6 10 10 4
10 -7 0 -11 6 -11 13 1 28 -16 76 -30 81 -12 5 -13 0 -8 -27 l6 -32 -20 30
c-25 36 -13 54 24 37 33 -15 36 -15 29 3 -4 8 -2 15 4 15 5 0 12 -7 16 -15 3
-8 10 -15 16 -15 6 0 8 4 5 10 -3 5 1 20 9 32 13 20 13 26 0 42 -12 17 -14 18
-14 3 0 -21 -26 -22 -47 -2 -10 11 -15 34 -14 70 l0 55 -89 0 c-75 0 -90 -3
-90 -16 0 -8 -4 -12 -10 -9 -5 3 -10 -1 -10 -9 0 -9 -6 -16 -14 -16 -12 0 -26
-28 -26 -56 0 -7 19 -11 50 -10 29 1 50 -2 50 -9 -1 -17 -90 -77 -107 -71 -12
5 -13 9 -3 21 10 12 9 15 -4 15 -9 0 -16 -8 -16 -20 0 -11 5 -20 10 -20 6 0
10 -5 10 -11 0 -6 -9 -8 -20 -4 -11 4 -20 2 -20 -4 0 -6 -4 -11 -10 -11 -20 0
-9 45 17 72 22 23 28 40 31 93 l4 65 -81 0 -81 0 7 -30 c4 -25 2 -30 -13 -30
-12 0 -24 12 -32 30 -13 27 -18 30 -63 30 l-49 0 0 -34 c0 -18 7 -39 15 -46 8
-7 15 -19 15 -26 0 -8 5 -14 10 -14 6 0 10 -5 10 -11 0 -8 -5 -7 -16 2 -9 7
-29 12 -45 11 -16 -1 -29 2 -29 8 0 5 7 10 15 10 8 0 15 8 15 18 0 11 -3 13
-8 6 -9 -14 -62 -15 -59 -1 1 6 -8 13 -21 16 -13 3 -22 10 -21 16 3 18 -65 45
-113 45 -36 0 -48 -4 -48 -15 0 -8 9 -15 19 -15 18 0 37 -27 26 -38 -3 -3 -5
-2 -5 3 0 4 -8 1 -18 -8 -17 -16 -91 -21 -214 -15 -41 2 -118 -30 -118 -49 0
-6 -5 -15 -12 -19 -7 -4 -8 -3 -4 4 4 7 3 12 -3 12 -5 0 -11 -6 -14 -12 -4
-10 -7 -10 -18 0 -15 14 -43 17 -34 3 3 -5 0 -13 -6 -17 -8 -4 -9 -3 -5 4 10
17 -14 15 -49 -4 -16 -8 -51 -18 -77 -21 -42 -5 -48 -4 -48 13 0 16 -2 17 -10
4 -16 -24 18 -42 65 -36 30 5 36 4 25 -5 -11 -8 -6 -9 23 -4 37 6 97 -11 97
-27 0 -5 5 -8 10 -8 6 0 9 6 8 12 -2 7 7 14 20 16 16 2 22 -2 23 -15 0 -10 3
-13 6 -5 2 6 12 12 21 12 14 0 15 -2 3 -9 -11 -7 -7 -10 15 -13 32 -4 74 10
74 24 0 5 4 7 10 3 5 -3 7 -12 4 -20 -4 -8 -10 -12 -15 -9 -5 3 -9 -4 -9 -15
0 -12 3 -20 8 -20 20 3 32 -2 32 -15 0 -22 19 -30 36 -16 9 8 28 10 52 7 25
-5 32 -3 22 3 -12 8 -12 10 5 11 11 1 26 1 33 0 6 -1 12 3 12 9 0 5 9 10 20
10 13 0 20 7 20 20 0 11 -4 21 -10 21 -5 1 -14 3 -20 4 -5 1 -19 3 -31 4 -28
1 -14 21 16 21 13 0 27 5 30 11 11 17 0 20 -31 9 -27 -10 -28 -10 -13 5 12 12
25 15 53 10 33 -7 41 -15 36 -40 -1 -5 7 -2 18 8 10 9 24 17 30 17 7 0 12 5
12 10 0 6 9 10 21 10 11 0 18 -4 14 -10 -3 -5 7 -9 22 -9 38 1 87 -6 101 -14
5 -4 12 -2 14 5 2 6 10 8 17 4 9 -6 8 -13 -8 -27 -16 -15 -18 -24 -11 -43 5
-13 14 -42 20 -65 6 -24 17 -41 25 -41 8 0 15 -7 15 -15 0 -8 5 -15 10 -15 6
0 10 -4 10 -9 0 -7 -45 -21 -82 -25 -17 -2 -19 -16 -2 -16 18 -1 18 -1 1 -11
-9 -5 -22 -7 -27 -4 -6 3 -10 0 -10 -7 0 -20 -40 -42 -79 -43 -29 -2 -31 0
-17 10 22 16 20 23 -6 27 -15 2 -23 10 -23 23 0 11 -4 20 -10 19 -25 -1 -65
-17 -65 -26 0 -5 -5 -15 -12 -22 -10 -11 -18 -10 -43 5 -37 23 -45 24 -45 3 0
-11 5 -14 16 -10 13 5 15 2 10 -16 -4 -13 -9 -32 -12 -43 l-4 -20 9 20 c5 11
10 15 10 9 1 -6 14 -9 32 -6 25 4 30 2 23 -9 -5 -8 -7 -23 -6 -34 2 -15 1 -17
-6 -6 -6 7 -16 11 -23 9 -8 -3 -24 -1 -36 3 -17 6 -21 5 -16 -6 7 -19 -4 -19
-23 0 -12 12 -20 13 -36 4 -18 -9 -24 -8 -35 7 -7 10 -13 14 -13 8 0 -15 -88
-14 -94 2 -8 21 -29 17 -22 -3 6 -17 5 -17 -7 -1 -8 10 -17 15 -20 11 -4 -3
-13 0 -22 7 -13 11 -14 10 -9 -4 4 -12 0 -16 -15 -16 -19 0 -20 -2 -9 -20 15
-24 28 -26 28 -5 0 8 5 15 10 15 6 0 10 -6 10 -14 0 -8 10 -16 23 -18 20 -3
19 -4 -10 -18 -17 -8 -30 -17 -28 -20 2 -3 -40 -2 -93 2 -140 10 -178 15 -267
32 -44 8 -120 20 -170 26 -49 6 -103 12 -120 14 -69 9 -155 29 -155 37 0 5 5
9 11 9 6 0 -3 14 -20 32 -17 17 -31 38 -31 45 0 26 -16 12 -35 -33 l-20 -46
-100 6 c-55 3 -174 17 -265 31 -91 15 -193 30 -227 34 -34 5 -73 15 -85 23
-14 10 -31 12 -43 7 -19 -7 -59 -2 -80 9 -5 3 -25 6 -43 5 -25 0 -31 2 -22 11
6 6 33 12 60 12 28 1 55 2 60 3 19 2 10 31 -16 47 -28 19 -16 35 19 26 15 -4
18 -2 12 8 -6 10 -4 12 9 7 9 -4 24 -3 34 2 9 5 25 12 35 15 9 3 17 10 17 16
0 14 -86 13 -111 -2 -17 -11 -22 -10 -30 5 -6 9 -15 14 -21 11 -6 -4 -14 -1
-18 7 -7 10 -11 10 -24 0 -13 -11 -19 -11 -31 -1 -8 6 -18 9 -24 6 -5 -3 -12
0 -14 6 -4 10 -6 10 -6 1 -1 -7 -8 -13 -16 -13 -8 0 -15 -4 -15 -9 0 -12 -56
3 -76 20 -11 9 -15 8 -19 -3 -8 -20 -81 -16 -103 5 -9 9 -14 19 -11 21 10 10
92 19 86 10 -8 -13 42 -12 51 1 15 22 63 45 94 45 29 0 35 4 47 38 7 20 13 51
12 69 -1 20 5 35 16 41 10 6 -68 10 -217 11 -177 1 -236 -2 -243 -12 -7 -9
-10 -9 -14 1 -6 16 -30 15 -36 -2z m463 -73 c0 -5 -9 -19 -20 -33 -16 -21 -20
-22 -20 -7 0 10 6 24 13 32 13 16 27 19 27 8z m2186 -21 c-4 -3 -14 2 -24 12
-16 18 -16 18 6 6 13 -6 21 -14 18 -18z m-2780 -19 c-10 -10 -19 5 -10 18 6
11 8 11 12 0 2 -7 1 -15 -2 -18z m359 -3 c-3 -5 -10 -10 -16 -10 -5 0 -9 5 -9
10 0 6 7 10 16 10 8 0 12 -4 9 -10z m2069 -25 c-4 -8 -8 -15 -10 -15 -2 0 -4
7 -4 15 0 8 4 15 10 15 5 0 7 -7 4 -15z m2011 5 c-3 -5 -11 -10 -16 -10 -6 0
-7 5 -4 10 3 6 11 10 16 10 6 0 7 -4 4 -10z m-1866 -6 c28 -6 31 -10 29 -40
-1 -20 -7 -34 -15 -34 -7 0 -13 5 -13 10 0 6 -4 10 -10 10 -5 0 -10 -7 -10
-15 0 -8 5 -15 12 -15 6 0 8 -3 4 -7 -10 -11 -52 39 -58 70 -6 30 2 32 61 21z
m-2662 -33 c3 -11 11 -22 19 -25 11 -4 12 -10 2 -31 -13 -28 -26 -32 -34 -10
-3 8 -14 17 -25 20 -10 4 -19 10 -19 15 0 5 7 6 17 3 11 -4 14 -3 9 6 -10 15
0 41 15 41 6 0 13 -9 16 -19z m4030 -13 c-3 -8 -6 -5 -6 6 -1 11 2 17 5 13 3
-3 4 -12 1 -19z m-3632 1 c9 -13 7 -15 -27 -23 -21 -5 -28 -3 -28 8 0 12 13
20 42 25 4 0 10 -4 13 -10z m-202 -6 c-7 -2 -19 -2 -25 0 -7 3 -2 5 12 5 14 0
19 -2 13 -5z m2979 -25 c-9 -9 -12 -7 -12 12 0 19 3 21 12 12 9 -9 9 -15 0
-24z m-3062 -7 c0 -22 -26 -58 -35 -49 -4 3 -2 15 4 26 6 11 8 28 5 36 -5 12
-2 15 10 10 9 -3 16 -14 16 -23z m4360 9 c0 -5 -2 -10 -4 -10 -3 0 -8 5 -11
10 -3 6 -1 10 4 10 6 0 11 -4 11 -10z m-1000 -21 c0 -5 -6 -9 -12 -10 -7 0 -2
-5 12 -11 21 -9 22 -12 8 -15 -10 -3 -18 -8 -18 -13 0 -8 -73 -29 -122 -34
-25 -3 -26 -1 -21 33 5 35 23 68 23 43 0 -18 35 -14 60 6 23 18 70 19 70 1z
m134 -4 c-4 -8 -10 -15 -15 -15 -5 0 -9 7 -9 15 0 8 7 15 15 15 9 0 12 -6 9
-15z m-5 -40 c22 8 41 12 41 10 0 -2 3 -11 7 -21 5 -13 3 -16 -10 -11 -9 3
-19 2 -22 -3 -8 -13 -75 -13 -75 -1 0 5 -3 18 -6 28 -5 17 -5 17 9 0 13 -16
18 -16 56 -2z m341 -137 c0 -9 -5 -20 -11 -24 -18 -11 -27 15 -15 41 11 25 26
15 26 -17z m570 -113 c0 -2 -7 -5 -15 -9 -9 -3 -15 0 -15 9 0 9 6 12 15 9 8
-4 15 -7 15 -9z m-1603 -11 c-3 -3 -12 -4 -19 -1 -8 3 -5 6 6 6 11 1 17 -2 13
-5z m-317 -101 c0 -5 -18 -9 -41 -11 -26 -2 -38 1 -34 8 7 11 75 14 75 3z
m-1790 -193 c0 -5 -5 -10 -11 -10 -5 0 -7 5 -4 10 3 6 8 10 11 10 2 0 4 -4 4
-10z m595 -59 c3 -5 1 -12 -5 -16 -5 -3 -10 1 -10 9 0 18 6 21 15 7z m3810 -4
c10 -8 15 -19 11 -25 -11 -18 -22 -14 -40 13 -19 29 -3 35 29 12z m-3515 -23
c0 -8 -4 -12 -10 -9 -5 3 -10 10 -10 16 0 5 5 9 10 9 6 0 10 -7 10 -16z m3925
-74 c3 -5 -3 -10 -14 -10 -11 0 -23 5 -26 10 -3 6 3 10 14 10 11 0 23 -4 26
-10z m-1742 -87 c-7 -2 -21 -2 -30 0 -10 3 -4 5 12 5 17 0 24 -2 18 -5z m147
-13 c0 -5 -5 -10 -11 -10 -5 0 -7 5 -4 10 3 6 8 10 11 10 2 0 4 -4 4 -10z m70
-10 c0 -5 -2 -10 -4 -10 -3 0 -8 5 -11 10 -3 6 -1 10 4 10 6 0 11 -4 11 -10z
m-443 -6 c-3 -3 -12 -4 -19 -1 -8 3 -5 6 6 6 11 1 17 -2 13 -5z m228 -21 c7
-30 31 -25 27 5 -2 17 1 20 13 16 10 -4 14 -13 10 -23 -6 -15 -5 -15 10 0 15
15 19 15 51 0 20 -9 34 -22 34 -33 0 -10 5 -18 10 -18 6 0 10 9 10 21 0 11 5
17 10 14 6 -3 10 1 10 9 0 22 26 20 49 -3 13 -13 21 -16 24 -8 3 8 14 5 35
-10 17 -13 37 -23 44 -23 8 0 9 3 3 8 -15 11 -17 39 -3 44 7 3 22 2 33 -3 11
-4 14 -8 8 -8 -7 -1 -13 -6 -13 -11 0 -6 11 -8 25 -4 14 3 25 2 25 -3 0 -5 9
-9 20 -9 11 0 20 4 20 8 0 4 7 5 15 2 8 -4 15 -1 15 6 0 6 -9 14 -20 17 -11 3
-20 9 -20 13 0 5 9 6 20 3 25 -7 37 -42 19 -55 -10 -7 -8 -8 9 -5 17 4 22 1
22 -14 0 -25 20 -24 27 1 6 22 23 26 41 8 8 -8 15 -8 25 1 27 22 60 7 74 -34
16 -47 26 -59 21 -25 -2 21 1 25 25 25 15 1 27 -3 27 -7 0 -4 13 -8 28 -8 15
0 34 -6 41 -12 6 -7 16 -14 22 -14 5 -1 10 -2 12 -4 1 -1 11 -3 21 -5 11 -2
23 -11 28 -19 5 -9 16 -16 24 -16 9 0 14 -5 12 -12 -3 -7 8 -23 24 -36 15 -13
28 -32 28 -41 0 -26 7 -29 48 -20 31 7 39 6 50 -11 11 -14 21 -18 43 -13 31 6
42 -12 12 -20 -14 -4 -14 -5 3 -6 15 -1 24 7 28 22 5 18 8 19 16 7 6 -10 6
-16 0 -18 -6 -2 -10 -10 -10 -17 0 -7 -8 -15 -17 -17 -14 -3 -9 -8 16 -21 26
-13 37 -14 47 -6 11 9 14 8 14 -4 0 -19 38 -29 62 -16 16 9 18 6 18 -27 0 -25
7 -41 23 -55 29 -25 34 -24 42 9 l7 27 14 -27 c15 -29 30 -39 20 -13 -3 9 0
15 10 15 13 0 15 -9 12 -45 -2 -32 1 -45 10 -45 7 0 10 -4 7 -10 -6 -9 0 -12
35 -14 8 -1 16 -11 18 -24 3 -20 1 -21 -21 -13 -19 7 -27 6 -30 -3 -4 -10 1
-12 14 -9 12 3 21 -1 25 -11 8 -21 34 -2 34 25 0 10 3 20 8 23 4 2 6 -13 4
-35 -2 -21 -8 -42 -13 -45 -18 -11 -8 -21 16 -16 14 2 23 7 21 11 -2 3 2 12
10 19 8 7 14 8 14 3 0 -5 3 -17 7 -27 4 -12 3 -15 -5 -10 -7 4 -12 3 -12 -2 0
-15 28 -22 33 -9 3 7 4 -1 2 -18 -4 -45 35 -120 62 -119 12 0 24 -5 27 -12 3
-8 0 -11 -8 -8 -10 4 -12 -2 -8 -21 3 -16 10 -24 18 -21 11 4 43 -22 37 -31
-8 -10 -1 -23 12 -23 8 0 15 -7 15 -15 0 -7 8 -19 18 -24 11 -7 12 -11 4 -11
-10 0 -10 -4 2 -16 9 -8 16 -19 16 -23 0 -3 14 -15 32 -26 18 -10 27 -20 20
-23 -7 -2 -12 -13 -12 -23 0 -11 5 -17 10 -14 6 3 10 1 10 -6 0 -7 8 -21 17
-31 15 -17 15 -19 -3 -34 -18 -15 -18 -15 3 -11 32 7 80 -89 77 -155 -2 -27 2
-48 7 -48 6 0 7 -9 4 -21 -5 -13 -3 -19 3 -15 12 7 25 -40 16 -56 -4 -7 -3 -8
5 -4 8 6 10 -6 7 -43 -3 -28 0 -51 5 -51 5 0 9 -13 9 -29 0 -17 5 -33 10 -36
18 -11 11 -23 -10 -18 -15 4 -19 11 -15 24 4 11 2 19 -4 19 -16 0 -13 -36 4
-54 17 -17 20 -30 5 -21 -5 3 -10 1 -10 -5 0 -6 6 -10 13 -9 28 3 39 -2 34
-16 -4 -8 -2 -17 4 -21 6 -4 4 -13 -7 -26 -18 -19 -17 -19 7 -15 23 5 26 2 26
-26 0 -17 5 -33 11 -35 23 -7 12 -32 -14 -32 l-25 0 33 -30 c33 -31 33 -31 36
-8 2 13 8 28 14 33 7 7 9 3 5 -13 -3 -13 1 -42 9 -65 8 -23 12 -47 10 -53 -3
-7 2 -15 10 -18 8 -3 14 -10 14 -17 0 -6 -6 -9 -14 -6 -8 3 -16 -2 -19 -14 -3
-10 -1 -19 4 -19 5 0 9 5 9 10 0 6 4 10 8 10 10 0 16 -54 16 -142 1 -31 4 -54
8 -52 4 2 10 -5 13 -17 4 -12 2 -24 -3 -28 -7 -4 -8 -20 -1 -49 5 -23 10 -71
12 -107 1 -36 5 -65 10 -65 4 0 7 -7 7 -15 0 -8 -4 -15 -10 -15 -6 0 -6 -9 -1
-22 10 -28 25 -136 22 -160 -1 -10 3 -18 8 -18 6 0 11 -4 11 -10 0 -5 -7 -10
-15 -10 -8 0 -15 -5 -15 -11 0 -5 5 -7 11 -3 11 7 8 -26 -8 -95 -4 -18 -3 -22
7 -16 10 6 12 -2 7 -41 -4 -27 -7 -106 -8 -176 -1 -105 -4 -128 -17 -133 -10
-4 -12 -9 -5 -16 14 -14 -8 -81 -24 -74 -16 5 -17 -7 -2 -22 14 -14 8 -58 -8
-58 -17 0 -29 -15 -12 -15 10 -1 10 -4 -4 -14 -10 -8 -15 -20 -11 -30 5 -12 0
-16 -19 -16 -22 0 -25 -4 -24 -32 1 -20 7 -33 15 -32 37 3 40 5 35 23 -3 11 2
21 11 24 21 8 22 -32 1 -59 -8 -10 -15 -27 -15 -37 0 -9 -4 -26 -10 -37 -5
-11 -14 -29 -19 -39 -10 -19 -5 -31 12 -31 5 0 7 6 4 13 -3 8 -1 20 3 28 7 11
14 9 34 -11 25 -22 37 -58 16 -45 -5 3 -10 2 -10 -4 0 -5 9 -13 20 -16 26 -8
26 -29 1 -22 -12 3 -27 -3 -36 -13 -14 -15 -21 -16 -46 -7 -16 6 -29 18 -29
27 -1 12 -3 12 -11 -2 -5 -10 -21 -18 -34 -18 -24 0 -24 -1 -11 -37 7 -21 11
-44 9 -50 -3 -7 0 -13 6 -13 6 0 10 6 8 13 -1 6 4 11 12 9 8 -2 11 3 8 13 -5
10 0 15 14 15 11 0 17 -4 14 -10 -3 -6 1 -7 9 -4 11 4 16 0 16 -15 0 -14 6
-21 20 -21 17 0 20 -6 19 -37 -2 -31 -3 -33 -6 -10 -3 19 -10 27 -24 27 -20 0
-27 -34 -9 -45 18 -11 10 -25 -14 -25 -14 0 -28 -5 -32 -12 -4 -7 -3 -8 4 -4
8 5 12 -1 13 -16 1 -18 2 -19 6 -5 6 22 29 17 25 -5 -1 -9 3 -18 10 -21 9 -3
12 -20 10 -51 -3 -38 -7 -46 -24 -46 -13 0 -18 -5 -15 -14 3 -8 -1 -17 -9 -20
-10 -4 -12 -2 -8 6 5 7 2 9 -8 5 -12 -4 -14 -1 -11 13 3 10 -4 27 -16 39 -21
21 -12 38 14 27 8 -3 15 -2 15 2 0 19 -27 32 -68 32 -26 0 -41 4 -37 10 6 10
-22 26 -31 18 -2 -3 0 -17 6 -32 8 -23 13 -25 30 -16 16 9 22 6 36 -14 8 -14
13 -30 9 -36 -3 -5 1 -13 9 -16 32 -12 15 -24 -26 -19 -38 4 -41 3 -25 -9 9
-7 17 -16 17 -19 0 -9 -75 5 -82 16 -4 6 -11 8 -15 3 -4 -4 3 -16 16 -27 21
-17 20 -24 -1 -20 -5 0 -8 -4 -8 -9 0 -6 -4 -10 -10 -10 -5 0 -10 7 -10 15 0
18 -46 20 -56 3 -4 -7 -3 -10 1 -5 5 4 19 0 32 -9 16 -10 34 -13 54 -9 19 4
29 3 29 -5 0 -7 -7 -10 -15 -6 -8 3 -19 -2 -24 -12 -8 -14 -11 -14 -11 -2 0
12 -4 10 -15 -4 -14 -18 -15 -19 -15 -2 0 12 -5 16 -16 12 -9 -3 -23 -6 -31
-6 -19 0 -12 -11 9 -13 7 -2 13 -7 13 -12 0 -6 -3 -9 -7 -8 -12 4 -10 -15 2
-22 6 -3 10 -13 10 -21 0 -8 -4 -12 -10 -9 -5 3 -10 -3 -10 -14 0 -12 3 -20 8
-20 18 3 32 -2 32 -12 0 -6 -6 -9 -13 -6 -7 3 -21 -1 -31 -9 -11 -7 -23 -11
-27 -8 -5 3 -6 -2 -3 -11 4 -10 14 -15 25 -12 12 3 16 0 12 -9 -3 -8 -9 -14
-13 -14 -4 0 -10 -9 -13 -19 -7 -26 17 -17 31 12 10 21 11 21 11 -7 1 -16 -2
-26 -6 -23 -7 8 -33 -11 -33 -24 0 -5 7 -9 15 -9 17 0 19 -9 5 -30 -8 -12 -12
-13 -19 -2 -7 11 -9 11 -14 -2 -4 -9 -1 -16 6 -16 8 0 12 -21 13 -65 0 -50 -3
-64 -13 -61 -21 9 -15 -20 12 -52 24 -29 24 -30 5 -47 -13 -11 -30 -16 -50
-13 -32 5 -37 -1 -18 -20 9 -9 9 -12 0 -12 -7 0 -25 -13 -40 -28 -15 -16 -35
-31 -45 -35 -10 -4 -14 -12 -11 -22 4 -10 0 -15 -14 -15 -11 0 -28 -7 -37 -16
-8 -9 -23 -13 -32 -10 -29 11 -51 -2 -46 -29 3 -14 10 -22 18 -18 8 2 12 10 9
18 -6 14 78 31 96 20 15 -9 1 -27 -16 -21 -19 7 -18 -14 3 -37 17 -18 17 -19
0 -32 -10 -7 -34 -12 -53 -10 -22 2 -34 -1 -34 -9 0 -20 11 -26 31 -15 16 8
19 6 19 -17 0 -22 -2 -25 -15 -14 -12 10 -15 10 -15 0 0 -7 -7 -10 -15 -6 -8
3 -19 -2 -24 -12 -6 -9 -11 -13 -11 -8 0 6 -6 2 -13 -8 -19 -25 -50 -10 -44
21 3 15 -1 27 -10 30 -7 3 -11 13 -8 22 3 9 -1 24 -7 33 -11 14 -22 14 -76 5
-62 -11 -79 -29 -31 -35 30 -4 72 -62 45 -62 -9 0 -16 6 -16 12 0 7 -7 2 -16
-10 -13 -19 -21 -21 -55 -16 -33 6 -43 3 -59 -16 -25 -29 -25 -33 0 -55 13
-11 19 -29 19 -49 -1 -24 -3 -26 -6 -8 -5 28 -23 29 -23 1 0 -13 -4 -18 -12
-13 -11 7 -11 5 7 -39 7 -16 -52 -22 -86 -8 l-24 10 24 0 c19 1 21 4 11 16 -6
8 -9 19 -5 25 6 9 -10 14 -43 13 -7 -1 -11 5 -8 13 3 9 -1 14 -13 14 -10 0
-21 7 -25 15 -7 19 -40 19 -56 0 -10 -13 -9 -15 8 -15 12 0 23 -4 26 -9 8 -12
-23 -23 -37 -14 -7 5 -29 8 -49 9 -29 0 -38 -4 -38 -16 0 -13 -6 -16 -24 -13
-33 7 -39 -10 -14 -36 14 -15 23 -19 28 -12 4 7 11 2 20 -14 15 -28 8 -44 -12
-27 -8 6 -39 12 -70 14 l-56 3 5 35 c3 25 2 31 -5 21 -8 -11 -11 -8 -15 15 -3
25 -4 24 -6 -9 0 -21 -5 -36 -10 -32 -5 3 -12 1 -15 -4 -3 -5 -15 -7 -26 -4
-13 4 -20 0 -20 -9 0 -8 -16 -20 -35 -27 -24 -8 -35 -19 -35 -32 0 -23 -18
-25 -27 -3 -5 13 -7 13 -14 2 -7 -10 -9 -9 -9 5 0 9 -4 17 -10 17 -5 0 -10
-13 -10 -30 0 -23 -5 -30 -19 -30 -11 0 -23 -5 -26 -10 -5 -8 -12 -7 -22 2
-13 11 -13 13 3 18 17 6 16 8 -5 19 -18 10 -25 10 -31 1 -5 -8 -9 -7 -14 5 -3
9 -11 13 -17 10 -7 -5 -7 -11 -1 -17 28 -28 -34 -72 -65 -46 -10 8 -13 5 -13
-11 0 -14 -6 -21 -20 -21 -11 0 -20 -4 -20 -10 0 -5 -5 -10 -11 -10 -7 0 -23
-12 -36 -27 -15 -17 -27 -23 -30 -16 -6 16 -75 4 -87 -15 -5 -8 -11 -10 -15
-4 -4 6 -22 5 -53 -3 -26 -6 -47 -9 -46 -6 2 18 -4 29 -16 34 -12 5 -13 1 -7
-15 10 -27 -9 -68 -31 -68 -11 0 -18 10 -21 28 -4 24 -5 25 -11 7 -8 -22 -50
-32 -61 -15 -3 6 -13 10 -22 10 -13 0 -14 -2 -2 -17 8 -10 9 -14 2 -10 -6 4
-14 3 -18 -3 -4 -6 -11 -8 -16 -4 -6 3 -5 12 3 22 12 15 11 16 -4 4 -10 -8
-23 -12 -30 -9 -7 2 -21 -8 -30 -22 -10 -14 -18 -20 -18 -13 0 6 -10 12 -21
12 -17 0 -19 -3 -10 -13 8 -11 5 -13 -19 -9 -25 3 -30 9 -30 31 0 20 -2 23
-10 11 -6 -10 -10 -11 -10 -2 0 6 -9 12 -21 12 -11 0 -18 4 -15 8 3 5 -6 15
-19 22 -14 7 -25 19 -25 27 0 7 -8 13 -17 13 -15 0 -14 2 3 14 18 14 18 15 1
28 -10 8 -18 18 -17 23 7 32 -1 39 -19 18 -11 -13 -23 -18 -30 -13 -10 5 -10
9 -2 14 6 4 9 12 5 17 -7 12 -44 -28 -44 -48 0 -7 8 -13 18 -13 15 0 18 -6 14
-29 -2 -16 1 -39 8 -51 14 -26 12 -28 -30 -40 -29 -8 -32 -7 -27 11 3 12 0 22
-9 26 -8 3 -13 12 -10 19 3 9 -2 14 -14 14 -11 0 -20 -3 -20 -8 0 -4 -9 -13
-21 -20 -18 -12 -24 -11 -40 7 -16 17 -24 19 -45 11 -30 -12 -48 -4 -40 17 4
11 2 13 -9 9 -8 -3 -15 0 -16 7 0 7 -2 32 -4 57 -4 57 -5 59 -14 36 -4 -11
-17 -20 -29 -21 -16 -1 -20 4 -19 24 3 27 -21 64 -35 55 -4 -3 -8 2 -8 10 0 9
5 16 10 16 6 0 10 7 10 15 0 8 -4 15 -10 15 -5 0 -10 -7 -10 -15 0 -8 -9 -15
-20 -15 -22 0 -27 -15 -7 -23 6 -3 3 -6 -8 -7 -16 -1 -14 -4 10 -14 l30 -14
-29 -11 c-16 -7 -38 -21 -48 -33 -14 -17 -21 -19 -30 -10 -7 7 -25 12 -41 12
-15 0 -37 5 -47 10 -16 8 -18 8 -14 -5 4 -8 1 -15 -5 -15 -6 0 -11 7 -11 15 0
8 -4 15 -9 15 -5 0 -7 -9 -4 -20 3 -12 0 -20 -7 -20 -6 0 -14 9 -17 20 -4 15
-11 19 -26 14 -15 -5 -19 -3 -14 9 7 18 -26 30 -41 15 -6 -6 -12 4 -17 28 -5
28 -9 34 -16 23 -8 -12 -10 -12 -19 1 -5 8 -7 23 -4 33 3 9 1 17 -5 17 -6 0
-11 -6 -11 -13 0 -8 -6 -14 -14 -14 -8 0 -12 6 -9 14 3 7 -2 16 -11 19 -9 3
-16 13 -16 20 0 8 -7 17 -15 20 -8 3 -17 14 -20 25 -4 12 -16 19 -31 19 -16 0
-23 4 -18 11 3 6 14 9 23 6 16 -4 16 0 5 42 -7 25 -15 54 -19 63 -5 14 -2 18
13 18 15 0 18 5 14 25 -4 25 -22 46 -22 27 0 -6 -12 -13 -26 -16 -17 -5 -24
-12 -20 -21 3 -9 0 -12 -9 -9 -15 6 -9 34 7 34 6 0 17 8 24 18 16 20 19 56 4
47 -5 -3 -18 -1 -27 4 -15 9 -14 11 12 12 17 1 33 1 38 0 4 0 7 4 7 9 0 6 -9
10 -19 10 -11 0 -23 5 -27 11 -4 7 -21 9 -41 6 -24 -4 -33 -2 -30 6 3 7 10 11
16 9 7 -1 10 2 7 7 -4 5 -16 8 -28 6 -22 -5 -48 10 -48 27 0 6 11 8 25 5 24
-4 25 -3 11 17 -8 11 -22 20 -33 19 -16 -2 -18 4 -15 39 4 40 4 41 -27 36 -30
-4 -31 -4 -25 28 5 26 2 34 -15 43 -11 6 -18 17 -15 25 3 9 -3 17 -15 21 -12
3 -21 15 -21 25 0 22 30 35 42 18 6 -10 8 -10 8 2 0 13 1 13 10 0 6 -9 10 -10
10 -3 0 7 -8 16 -17 22 -10 5 -15 13 -11 17 4 3 3 15 -3 25 -9 18 -11 18 -35
-6 -28 -28 -46 -33 -38 -10 4 8 2 15 -4 15 -16 0 -21 61 -5 67 7 3 13 11 13
19 0 8 5 14 10 14 6 0 10 4 10 10 0 5 -6 9 -12 7 -14 -2 -14 2 -4 46 4 19 3
26 -6 25 -17 -4 -23 33 -6 43 10 6 10 9 1 9 -7 0 -13 11 -13 25 0 14 -4 25
-10 25 -5 0 -10 -9 -10 -21 0 -12 -5 -19 -12 -17 -15 5 -24 48 -10 48 5 0 8
19 7 42 -3 56 4 78 22 71 11 -4 14 -1 11 13 -2 10 -9 18 -15 17 -7 -2 -15 6
-18 17 -4 11 -11 20 -17 20 -6 0 -8 15 -6 34 2 19 0 32 -4 30 -4 -3 -8 -1 -8
4 0 22 -31 21 -39 -1 -14 -37 -43 -56 -68 -46 -13 4 -23 14 -23 20 0 7 -7 20
-15 29 -9 10 -20 42 -26 71 -11 56 -12 70 -9 144 1 36 -4 54 -24 80 -17 22
-25 45 -25 67 2 31 2 31 6 5 3 -19 9 -27 18 -23 8 3 16 0 19 -7 2 -7 5 -2 5
10 1 24 28 56 41 48 5 -3 10 1 13 7 7 20 42 -16 53 -55 6 -17 10 -51 10 -74
-1 -26 4 -43 10 -43 14 0 28 -82 19 -110 -4 -11 -13 -20 -22 -20 -13 0 -13 -3
-3 -15 7 -8 16 -12 21 -9 5 3 9 -4 9 -15 0 -14 6 -21 20 -21 16 0 19 6 16 29
-2 19 2 32 10 35 19 7 18 42 -1 50 -10 3 -15 19 -15 46 0 23 -4 39 -9 36 -5
-3 -11 1 -15 9 -3 8 -1 17 3 20 13 7 8 60 -7 77 -7 9 -14 39 -15 67 -1 34 -7
53 -17 56 -12 5 -12 8 -1 14 17 11 5 71 -15 71 -8 0 -14 5 -14 10 0 6 4 10 9
10 12 0 8 24 -7 43 -7 8 -10 27 -6 44 4 18 1 33 -5 37 -6 4 -11 23 -11 42 0
19 -5 34 -11 34 -7 0 -10 21 -9 58 1 31 1 59 0 62 -1 3 -4 16 -5 30 -1 14 -5
63 -9 110 -9 110 -17 221 -16 240 0 8 2 48 5 88 2 42 0 72 -5 72 -13 0 -13 91
0 124 5 15 6 28 0 31 -5 3 -4 18 2 35 7 22 7 34 -2 44 -8 11 -8 25 0 57 6 23
9 76 7 119 -3 47 -1 82 5 88 16 16 16 103 1 97 -13 -4 -18 17 -7 28 10 10 12
91 3 103 -9 11 -1 54 10 54 4 0 7 8 8 18 6 69 18 119 32 129 11 8 12 12 4 13
-7 0 -13 9 -13 21 0 13 5 19 13 16 9 -3 11 10 9 55 -3 44 -1 58 9 56 8 -2 15
8 17 21 3 17 0 21 -10 15 -7 -4 -5 2 5 13 12 14 15 29 11 51 -5 27 -3 32 12
33 18 1 18 2 1 6 -15 4 -17 11 -11 36 8 38 22 67 32 66 18 -3 26 2 14 9 -15
10 -5 42 14 42 9 0 12 10 9 30 -3 26 0 30 21 30 13 0 24 5 24 10 0 6 -12 8
-27 5 -26 -5 -26 -4 5 10 17 8 32 22 32 31 0 16 14 33 44 49 10 6 17 14 15 18
-2 5 10 15 28 24 18 8 32 18 31 22 -4 37 3 48 30 44 21 -4 24 -2 12 6 -11 8
-12 13 -4 19 7 4 14 16 16 27 2 11 11 19 21 19 9 -1 17 4 17 12 0 8 4 14 10
14 5 0 7 7 4 15 -4 10 0 15 11 15 9 0 13 5 10 10 -3 6 1 10 9 10 10 0 13 6 9
15 -5 15 42 74 60 75 16 0 37 29 37 51 0 17 3 20 11 12 15 -15 44 19 55 61 4
18 9 24 14 16 9 -15 30 -4 30 16 0 8 7 14 15 14 8 0 15 8 15 18 0 9 10 22 23
27 12 6 21 16 20 23 -2 7 3 12 10 12 7 0 18 9 25 20 7 11 21 20 32 20 11 0 20
7 20 15 0 8 9 15 19 15 22 0 54 27 46 39 -2 5 5 17 16 27 18 16 19 16 13 1 -8
-22 9 -22 29 1 13 14 14 21 5 30 -9 9 -9 12 0 12 6 0 16 -8 21 -17 9 -16 10
-15 11 5 0 19 4 22 20 17 12 -4 27 -1 35 5 8 7 15 9 15 5 0 -4 6 -2 14 4 11 9
15 9 20 -1 3 -7 4 -1 1 14 -6 30 9 47 19 21 5 -12 9 -14 18 -5 15 15 52 16 43
2 -3 -5 -1 -10 5 -10 6 0 13 7 17 16 3 9 13 14 24 11 19 -5 29 11 29 45 0 17
3 18 15 8 12 -10 15 -10 15 4 0 12 7 14 33 10 29 -5 31 -4 14 9 -11 9 -14 18
-8 21 5 4 13 2 16 -4 5 -8 11 -7 22 2 8 6 24 14 36 15 12 2 24 8 28 14 3 6 22
8 45 5 21 -3 33 -3 27 0 -20 9 -15 23 6 19 14 -2 18 1 14 11 -7 18 26 31 37
14 5 -8 13 -9 21 -4 8 5 23 9 33 9 11 0 21 6 23 12 6 18 -27 29 -37 13 -6 -9
-9 -9 -15 0 -9 14 -7 16 26 24 19 4 29 1 33 -9 7 -19 73 -17 80 2 3 7 12 10
22 6 12 -4 15 -3 10 5 -4 7 -1 12 8 12 9 0 16 -6 17 -12 0 -10 2 -10 6 0 6 16
62 15 96 -2 22 -12 27 -12 27 -1 0 13 14 22 37 22 6 0 14 -11 18 -24z m-281 2
c3 -8 1 -15 -4 -15 -6 0 -10 7 -10 15 0 8 2 15 4 15 2 0 6 -7 10 -15z m-234
-69 c0 -3 -4 -8 -10 -11 -5 -3 -10 -1 -10 4 0 6 5 11 10 11 6 0 10 -2 10 -4z
m-280 -136 c0 -5 -4 -10 -10 -10 -5 0 -10 5 -10 10 0 6 5 10 10 10 6 0 10 -4
10 -10z m1820 -50 c0 -5 -4 -10 -10 -10 -5 0 -10 5 -10 10 0 6 5 10 10 10 6 0
10 -4 10 -10z m110 -16 c0 -8 -4 -12 -10 -9 -5 3 -10 10 -10 16 0 5 5 9 10 9
6 0 10 -7 10 -16z m105 -84 c3 -5 1 -10 -4 -10 -6 0 -11 5 -11 10 0 6 2 10 4
10 3 0 8 -4 11 -10z m42 -32 c-3 -7 -5 -2 -5 12 0 14 2 19 5 13 2 -7 2 -19 0
-25z m-2357 12 c0 -5 -7 -10 -16 -10 -8 0 -12 5 -9 10 3 6 10 10 16 10 5 0 9
-4 9 -10z m2460 -71 c0 -17 -4 -28 -10 -24 -11 7 -9 55 2 55 4 0 8 -14 8 -31z
m120 -106 c0 -5 -5 -15 -10 -23 -8 -12 -10 -11 -10 8 0 12 5 22 10 22 6 0 10
-3 10 -7z m-3410 -17 c0 -3 -4 -8 -10 -11 -5 -3 -10 -1 -10 4 0 6 5 11 10 11
6 0 10 -2 10 -4z m4192 -18 c-7 -7 -12 -8 -12 -2 0 14 12 26 19 19 2 -3 -1
-11 -7 -17z m215 -254 c-3 -3 -12 -4 -19 -1 -8 3 -5 6 6 6 11 1 17 -2 13 -5z
m143 -38 c0 -5 -3 -6 -7 -3 -3 4 -12 2 -20 -4 -9 -8 -17 -8 -25 -2 -7 6 -21 9
-30 8 -10 -2 -18 2 -18 9 0 8 10 11 30 8 18 -3 30 0 30 7 0 8 6 7 20 -1 11 -7
20 -17 20 -22z m60 -276 c0 -5 -4 -10 -10 -10 -5 0 -10 5 -10 10 0 6 5 10 10
10 6 0 10 -4 10 -10z m-4626 -164 c-3 -9 -10 -13 -16 -10 -5 3 -4 12 3 20 15
18 22 13 13 -10z m4851 -366 c-3 -5 -10 -10 -16 -10 -5 0 -9 5 -9 10 0 6 7 10
16 10 8 0 12 -4 9 -10z m-55 -116 c0 -9 -7 -14 -17 -12 -25 5 -28 28 -4 28 12
0 21 -6 21 -16z m-5411 -55 c-24 -15 -45 -11 -24 5 11 8 24 12 28 9 5 -3 3 -9
-4 -14z m-739 -3 c0 -3 -4 -8 -10 -11 -5 -3 -10 -1 -10 4 0 6 5 11 10 11 6 0
10 -2 10 -4z m686 -42 c-9 -9 -20 -14 -23 -10 -4 3 2 13 13 20 25 18 31 12 10
-10z m-560 -89 c-8 -31 1 -32 30 -4 21 19 24 20 38 6 21 -20 20 -26 -6 -54
-22 -23 -68 -32 -68 -12 0 5 -4 8 -9 4 -12 -7 -9 54 2 73 13 20 20 14 13 -13z
m1004 -145 c0 -5 -5 -10 -11 -10 -5 0 -7 5 -4 10 3 6 8 10 11 10 2 0 4 -4 4
-10z m-1000 -32 c0 -4 -6 -8 -14 -8 -8 0 -17 4 -20 8 -2 4 4 8 15 8 10 0 19
-4 19 -8z m1010 -13 c0 -14 -5 -23 -12 -22 -7 2 -3 -1 9 -7 18 -8 20 -15 16
-45 -6 -38 -18 -59 -29 -48 -4 4 -1 14 6 22 11 13 11 16 0 13 -9 -2 -17 13
-23 45 -5 26 -13 47 -19 47 -5 0 -6 5 -3 10 3 6 17 10 31 10 19 0 24 -5 24
-25z m140 -150 c0 -8 -7 -15 -16 -15 -14 0 -14 3 -4 15 7 8 14 15 16 15 2 0 4
-7 4 -15z m4310 -225 c0 -5 -4 -10 -10 -10 -5 0 -10 5 -10 10 0 6 5 10 10 10
6 0 10 -4 10 -10z m-4303 -177 c-3 -10 -5 -4 -5 12 0 17 2 24 5 18 2 -7 2 -21
0 -30z m90 -805 c-3 -8 -6 -5 -6 6 -1 11 2 17 5 13 3 -3 4 -12 1 -19z m4133
-105 c0 -10 -6 -13 -16 -9 -9 3 -18 6 -20 6 -2 0 -4 6 -4 14 0 9 7 12 20 9 11
-3 20 -12 20 -20z m-40 -43 c0 -5 -4 -10 -10 -10 -5 0 -10 5 -10 10 0 6 5 10
10 10 6 0 10 -4 10 -10z m83 -180 c6 -60 5 -63 -8 -40 -15 26 -20 92 -8 103 9
10 10 9 16 -63z m-83 -180 c0 -5 -5 -10 -11 -10 -5 0 -7 5 -4 10 3 6 8 10 11
10 2 0 4 -4 4 -10z m-180 -216 c0 -8 6 -14 13 -15 9 0 9 -2 0 -5 -7 -3 -9 -12
-6 -21 4 -11 2 -14 -8 -11 -8 3 -15 21 -17 42 -1 24 1 35 8 31 5 -3 10 -13 10
-21z m157 4 c-3 -8 -6 -5 -6 6 -1 11 2 17 5 13 3 -3 4 -12 1 -19z m-3926 -191
c-8 -8 -11 -5 -11 11 0 12 -5 22 -11 22 -5 0 -7 5 -4 11 5 6 13 2 22 -11 11
-16 12 -25 4 -33z m3829 33 c0 -5 -5 -10 -11 -10 -5 0 -7 5 -4 10 3 6 8 10 11
10 2 0 4 -4 4 -10z m-140 -174 c0 -12 -3 -25 -6 -28 -9 -10 -44 4 -44 18 0 8
6 11 15 8 10 -4 15 0 15 16 0 11 5 18 10 15 6 -3 10 -16 10 -29z m27 4 c-1
-12 -5 -16 -10 -11 -5 5 -6 14 -3 20 11 16 15 13 13 -9z m-47 -106 c0 -11 -45
-21 -52 -11 -12 19 12 38 33 26 10 -5 19 -12 19 -15z m-85 -204 c3 -5 -3 -10
-15 -10 -12 0 -18 5 -15 10 3 6 10 10 15 10 5 0 12 -4 15 -10z m-3398 -172
c-3 -8 -6 -5 -6 6 -1 11 2 17 5 13 3 -3 4 -12 1 -19z m78 -38 c3 -5 1 -10 -4
-10 -6 0 -11 5 -11 10 0 6 2 10 4 10 3 0 8 -4 11 -10z m-48 -282 c-3 -8 -6 -5
-6 6 -1 11 2 17 5 13 3 -3 4 -12 1 -19z m2490 -10 c-3 -8 -6 -5 -6 6 -1 11 2
17 5 13 3 -3 4 -12 1 -19z m78 2 c3 -5 -2 -10 -12 -10 -11 0 -24 -5 -31 -12
-9 -9 -12 -8 -12 4 0 24 43 38 55 18z m-2555 -14 c0 -3 -4 -8 -10 -11 -5 -3
-10 -1 -10 4 0 6 5 11 10 11 6 0 10 -2 10 -4z m122 -28 c-7 -7 -12 -8 -12 -2
0 14 12 26 19 19 2 -3 -1 -11 -7 -17z m-132 -78 c-6 -42 -8 -47 -9 -20 -1 34
8 84 14 78 2 -2 0 -28 -5 -58z m120 40 c0 -5 -4 -10 -10 -10 -5 0 -10 5 -10
10 0 6 5 10 10 10 6 0 10 -4 10 -10z m2190 -4 c0 -2 -7 -6 -15 -10 -8 -3 -15
-1 -15 4 0 6 7 10 15 10 8 0 15 -2 15 -4z m-30 -36 c0 -5 -7 -10 -15 -10 -8 0
-15 5 -15 10 0 6 7 10 15 10 8 0 15 -4 15 -10z m1110 -44 c0 -3 -4 -8 -10 -11
-5 -3 -10 -1 -10 4 0 6 5 11 10 11 6 0 10 -2 10 -4z m-2660 -26 c0 -5 -4 -10
-10 -10 -5 0 -10 5 -10 10 0 6 5 10 10 10 6 0 10 -4 10 -10z m1115 -30 c-3 -5
-11 -10 -16 -10 -6 0 -7 5 -4 10 3 6 11 10 16 10 6 0 7 -4 4 -10z m-111 -25
c-4 -8 -11 -12 -16 -9 -6 4 -5 10 3 15 19 12 19 11 13 -6z"/>
<path d="M3538 6883 c7 -3 16 -2 19 1 4 3 -2 6 -13 5 -11 0 -14 -3 -6 -6z"/>
<path d="M4011 5994 c0 -11 3 -14 6 -6 3 7 2 16 -1 19 -3 4 -6 -2 -5 -13z"/>
<path d="M4400 5985 c0 -8 5 -15 10 -15 6 0 10 7 10 15 0 8 -4 15 -10 15 -5 0
-10 -7 -10 -15z"/>
<path d="M4650 5920 c0 -5 5 -10 11 -10 5 0 7 5 4 10 -3 6 -8 10 -11 10 -2 0
-4 -4 -4 -10z"/>
<path d="M4880 5886 c0 -2 7 -6 15 -10 8 -3 15 -1 15 4 0 6 -7 10 -15 10 -8 0
-15 -2 -15 -4z"/>
<path d="M5068 5743 c7 -3 16 -2 19 1 4 3 -2 6 -13 5 -11 0 -14 -3 -6 -6z"/>
<path d="M4980 5719 c-11 -7 -1 -8 35 -3 28 4 52 8 54 10 10 9 -76 3 -89 -7z"/>
<path d="M5090 5720 c0 -5 5 -10 10 -10 6 0 10 5 10 10 0 6 -4 10 -10 10 -5 0
-10 -4 -10 -10z"/>
<path d="M5110 5691 c0 -5 7 -12 16 -15 21 -8 21 -8 21 9 0 8 -9 15 -19 15
-10 0 -18 -4 -18 -9z"/>
<path d="M3010 5670 c0 -5 5 -10 11 -10 5 0 7 5 4 10 -3 6 -8 10 -11 10 -2 0
-4 -4 -4 -10z"/>
<path d="M5130 5640 c0 -5 5 -10 10 -10 6 0 10 5 10 10 0 6 -4 10 -10 10 -5 0
-10 -4 -10 -10z"/>
<path d="M5266 5627 c3 -10 9 -15 12 -12 3 3 0 11 -7 18 -10 9 -11 8 -5 -6z"/>
<path d="M5225 5620 c3 -5 8 -10 11 -10 2 0 4 5 4 10 0 6 -5 10 -11 10 -5 0
-7 -4 -4 -10z"/>
<path d="M5297 5614 c-8 -8 3 -34 14 -34 11 0 12 27 0 34 -4 3 -11 3 -14 0z"/>
<path d="M5336 5585 c-3 -8 -1 -15 4 -15 6 0 10 7 10 15 0 8 -2 15 -4 15 -2 0
-6 -7 -10 -15z"/>
<path d="M5157 5535 c-4 -8 -1 -17 6 -21 7 -4 9 -4 5 1 -4 4 -3 14 3 22 7 8 8
13 1 13 -5 0 -12 -7 -15 -15z"/>
<path d="M5360 5536 c0 -9 7 -19 15 -23 23 -8 25 0 4 21 -17 18 -19 18 -19 2z"/>
<path d="M2790 5510 c0 -5 5 -10 10 -10 6 0 10 5 10 10 0 6 -4 10 -10 10 -5 0
-10 -4 -10 -10z"/>
<path d="M5450 5500 c0 -11 5 -20 10 -20 6 0 10 9 10 20 0 11 -4 20 -10 20 -5
0 -10 -9 -10 -20z"/>
<path d="M5431 5474 c0 -11 3 -14 6 -6 3 7 2 16 -1 19 -3 4 -6 -2 -5 -13z"/>
<path d="M5468 5463 c7 -3 16 -2 19 1 4 3 -2 6 -13 5 -11 0 -14 -3 -6 -6z"/>
<path d="M5455 5431 c-7 -12 12 -24 25 -16 11 7 4 25 -10 25 -5 0 -11 -4 -15
-9z"/>
<path d="M5331 5394 c0 -11 3 -14 6 -6 3 7 2 16 -1 19 -3 4 -6 -2 -5 -13z"/>
<path d="M5476 5364 c-8 -21 -8 -24 4 -24 6 0 10 6 10 14 0 8 6 17 13 19 7 4
6 6 -4 6 -9 1 -20 -6 -23 -15z"/>
<path d="M5290 5336 c0 -8 5 -18 10 -21 6 -3 10 1 10 9 0 8 -4 18 -10 21 -5 3
-10 -1 -10 -9z"/>
<path d="M5435 5120 c4 -6 11 -8 16 -5 14 9 11 15 -7 15 -8 0 -12 -5 -9 -10z"/>
<path d="M5560 5126 c0 -2 7 -7 16 -10 8 -3 12 -2 9 4 -6 10 -25 14 -25 6z"/>
<path d="M5400 5100 c0 -5 5 -10 10 -10 6 0 10 5 10 10 0 6 -4 10 -10 10 -5 0
-10 -4 -10 -10z"/>
<path d="M5495 4980 c3 -5 8 -10 11 -10 2 0 4 5 4 10 0 6 -5 10 -11 10 -5 0
-7 -4 -4 -10z"/>
<path d="M5390 4900 c0 -5 4 -10 9 -10 6 0 13 5 16 10 3 6 -1 10 -9 10 -9 0
-16 -4 -16 -10z"/>
<path d="M4982 4893 c-12 -3 -28 -13 -35 -24 -6 -10 -16 -19 -21 -19 -5 0 -15
-8 -22 -17 -13 -17 -13 -17 -14 2 0 14 -3 16 -9 7 -6 -10 -10 -10 -21 2 -7 9
-16 13 -21 10 -5 -3 -9 2 -9 11 0 11 -9 7 -30 -15 -17 -17 -42 -33 -55 -36
-31 -6 -32 4 -2 16 l22 9 -23 0 c-14 1 -26 -7 -31 -20 l-8 -22 -21 23 c-16 17
-22 19 -22 9 0 -8 -12 -38 -26 -66 -19 -38 -29 -50 -41 -46 -13 5 -15 1 -11
-20 3 -15 1 -27 -3 -27 -14 0 -10 -28 4 -37 14 -8 47 -73 47 -92 0 -14 10 -14
30 -1 13 9 13 11 1 19 -10 7 -4 9 20 8 23 -1 36 -8 42 -21 8 -21 6 -27 -17
-30 -9 -1 -16 -5 -16 -9 0 -4 0 -12 0 -18 0 -5 5 -7 12 -3 7 5 8 3 4 -5 -5 -7
-14 -10 -22 -7 -7 3 -16 1 -20 -5 -3 -6 -12 -8 -20 -5 -8 3 -14 1 -14 -4 0 -6
-7 -10 -16 -10 -13 0 -14 -3 -5 -14 15 -18 -7 -59 -26 -51 -7 2 -13 -2 -13 -9
0 -12 34 -30 53 -27 4 1 7 -5 7 -13 0 -8 6 -16 13 -19 6 -2 0 -8 -15 -12 -21
-5 -28 -13 -28 -30 0 -15 -8 -26 -20 -30 -11 -3 -20 -15 -20 -26 0 -11 -7 -19
-16 -19 -10 0 -14 -6 -10 -15 3 -8 0 -15 -7 -15 -7 0 -13 -11 -13 -25 -1 -14
2 -25 8 -25 5 0 6 -6 1 -12 -11 -18 -13 -39 -3 -33 5 3 11 1 14 -4 4 -5 -2
-12 -11 -14 -14 -4 -13 -5 4 -6 12 0 24 5 26 12 4 8 6 7 6 -3 1 -9 -4 -21 -11
-28 -9 -9 -8 -12 5 -12 20 0 23 -26 5 -33 -8 -4 -7 -6 3 -6 11 -1 19 -13 23
-33 4 -18 10 -51 15 -73 6 -31 10 -36 15 -23 5 10 12 15 17 12 5 -3 7 -9 4
-14 -5 -8 24 -37 34 -32 3 1 8 -8 10 -20 1 -13 6 -25 11 -28 13 -9 22 -50 11
-50 -6 0 -11 -5 -11 -11 0 -7 11 -8 30 -4 24 5 30 3 30 -10 0 -9 4 -14 9 -10
6 3 14 -2 19 -11 8 -15 10 -15 15 0 8 20 27 21 27 1 0 -8 5 -15 10 -15 6 0 10
4 10 10 0 5 10 15 22 21 17 9 24 9 33 -5 7 -9 18 -16 24 -16 7 0 10 -4 7 -9
-3 -5 2 -11 12 -14 9 -2 25 -8 35 -12 12 -5 17 -2 17 9 0 9 5 16 10 16 6 0 10
-7 10 -15 0 -16 34 -38 43 -28 4 3 14 0 23 -8 14 -11 18 -11 21 -1 3 7 12 16
22 21 13 7 17 5 18 -10 1 -10 -2 -19 -8 -19 -5 0 -9 -4 -9 -9 0 -5 9 -7 19 -4
11 3 17 11 15 18 -9 23 16 27 34 6 12 -15 24 -19 40 -15 21 6 22 8 7 24 -15
16 -14 18 5 23 13 3 20 0 20 -8 0 -10 11 -12 41 -9 22 3 46 0 53 -5 10 -8 18
-5 32 14 17 23 42 36 29 16 -6 -11 33 -26 42 -17 4 3 -1 6 -11 6 -9 0 -15 4
-11 10 3 5 30 8 60 7 44 -2 55 0 58 15 5 16 -4 23 -25 19 -5 0 -8 8 -8 19 0
23 -21 26 -50 8 -14 -9 -23 -9 -30 -2 -20 20 33 43 109 46 69 3 71 4 71 29 0
29 -25 46 -37 25 -11 -17 -90 -28 -97 -12 -3 7 -5 7 -5 -1 -1 -7 -8 -13 -16
-13 -9 0 -15 9 -14 23 1 15 3 17 6 5 4 -15 6 -15 24 3 10 10 27 19 37 19 14 0
15 -2 2 -10 -11 -7 -12 -10 -2 -10 8 0 21 9 31 21 15 19 19 20 58 6 29 -10 41
-11 40 -3 -1 6 5 11 13 11 8 0 14 -6 12 -14 -2 -9 5 -12 23 -9 14 3 25 1 25
-3 0 -5 -4 -9 -10 -9 -5 0 -10 -6 -10 -14 0 -8 -7 -22 -16 -30 -14 -15 -14
-16 5 -16 12 0 21 5 21 10 0 6 5 10 11 10 5 0 7 -4 4 -10 -3 -5 3 -10 15 -10
12 0 18 -4 15 -10 -3 -5 3 -10 15 -10 12 0 18 5 15 10 -3 6 1 10 9 10 9 0 16
5 16 10 0 14 33 13 48 -2 9 -9 12 -7 12 10 0 16 6 22 21 22 14 0 19 -5 16 -15
-4 -8 -2 -17 3 -20 6 -4 10 3 10 14 0 12 -9 26 -20 33 -11 7 -20 16 -20 21 0
4 4 6 9 2 6 -3 6 6 1 25 -5 19 -5 30 1 30 26 0 41 31 34 70 -4 26 -3 40 4 40
6 0 11 12 12 28 1 29 3 24 13 -20 4 -16 12 -28 18 -28 9 0 9 3 0 12 -7 7 -12
27 -12 45 0 21 -5 32 -12 30 -9 -1 -13 14 -14 48 -3 89 -4 96 -13 91 -5 -3
-14 1 -21 9 -9 11 -17 12 -32 4 -11 -6 -22 -8 -25 -5 -3 3 2 8 11 12 9 3 16
12 16 20 0 8 7 11 18 8 16 -5 16 -5 0 9 -22 17 -23 27 -4 27 8 0 16 6 19 13 3
9 -4 12 -27 9 -57 -6 -69 -3 -95 22 -15 15 -32 26 -39 26 -7 0 -12 4 -12 10 0
5 -14 17 -30 25 -30 15 -32 15 -50 -7 l-19 -23 6 44 c5 40 4 44 -12 37 -10 -3
-24 -1 -31 5 -11 9 -14 7 -14 -10 0 -18 -4 -21 -20 -16 -11 4 -20 2 -20 -4 0
-6 9 -11 19 -11 11 0 23 -5 26 -10 4 -6 11 -8 16 -5 5 4 9 2 9 -4 0 -13 -17
-17 -56 -13 -20 3 -34 10 -34 18 0 23 -48 17 -55 -7 -5 -16 -10 -18 -21 -8 -8
6 -14 8 -14 3 0 -17 15 -31 38 -38 12 -4 22 -13 22 -19 1 -7 8 -1 16 13 8 14
13 17 10 8 -6 -21 14 -24 32 -6 9 9 15 9 23 1 6 -6 19 -9 28 -6 14 4 14 3 1
-6 -12 -8 -12 -13 -2 -23 6 -6 12 -22 12 -34 0 -13 4 -25 9 -28 4 -3 6 -17 4
-30 -5 -23 -2 -25 22 -20 21 4 28 0 32 -15 3 -11 12 -22 22 -24 9 -3 0 -5 -20
-6 -25 -1 -39 4 -43 15 -3 8 -11 12 -17 8 -6 -3 -14 -2 -18 2 -3 5 -26 18 -51
28 -25 10 -56 24 -70 31 -15 8 -41 11 -63 8 -24 -3 -37 -1 -37 7 0 8 -10 9
-29 5 -17 -3 -32 -2 -36 4 -3 6 -11 11 -16 11 -19 0 -3 -24 27 -41 21 -12 28
-23 26 -40 -3 -26 -20 -41 -39 -34 -7 2 -13 0 -13 -5 0 -6 -14 -10 -31 -10
-26 0 -29 -3 -24 -19 6 -19 1 -20 -84 -19 -50 1 -94 -2 -98 -5 -3 -4 -16 -7
-28 -7 -18 0 -21 4 -17 25 2 15 0 25 -7 25 -6 0 -11 -4 -11 -10 0 -5 -21 -10
-46 -10 -25 0 -43 4 -40 8 3 5 19 7 35 4 26 -3 29 -1 24 16 -4 16 1 21 26 27
31 7 48 21 37 32 -3 4 -16 1 -29 -5 -12 -6 -41 -14 -65 -17 -25 -4 -48 -15
-56 -27 -14 -19 -14 -18 -21 11 -3 17 -4 35 0 41 3 5 -1 10 -9 10 -9 0 -16 4
-16 10 0 5 6 7 14 4 11 -4 13 0 9 18 -3 13 -10 28 -14 34 -5 6 -1 19 11 32 24
25 26 62 5 62 -13 0 -14 4 -4 21 9 17 13 19 20 8 7 -11 11 -11 17 -2 5 8 13 9
22 3 25 -16 32 -11 26 15 -5 20 -3 25 13 25 19 0 35 25 26 40 -3 4 -14 6 -25
3 -13 -4 -20 0 -20 9 0 11 7 14 24 11 18 -4 29 2 41 21 11 16 27 26 40 26 34
0 78 18 93 38 10 13 15 14 21 4 8 -13 41 -6 41 9 0 5 5 9 10 9 6 0 10 -7 10
-15 0 -20 14 -19 31 1 12 14 14 14 25 -1 16 -22 34 -11 27 15 -4 15 0 20 16
20 12 0 21 -6 21 -15 0 -8 9 -15 21 -15 16 0 19 4 14 20 -5 15 -3 18 9 14 9
-3 16 -11 16 -16 0 -6 6 -5 15 2 8 6 19 9 25 5 5 -3 10 0 10 7 1 9 5 7 14 -4
7 -10 20 -18 29 -18 9 0 18 -4 22 -10 3 -5 12 -7 20 -3 9 3 15 -1 15 -11 0 -9
-3 -17 -7 -17 -5 -1 -21 -3 -37 -5 -39 -4 -44 -12 -15 -23 14 -5 25 -5 27 0 2
5 12 9 23 9 13 0 19 7 19 23 0 12 4 27 8 32 9 13 35 19 28 6 -4 -5 -2 -12 4
-16 6 -4 8 -11 5 -16 -20 -31 73 13 100 48 8 10 20 11 50 4 22 -5 34 -9 28
-10 -21 -2 -15 -21 6 -21 27 0 51 -10 51 -22 0 -5 -4 -7 -9 -3 -5 3 -12 1 -15
-4 -9 -14 16 -19 42 -10 18 7 21 13 16 35 -5 19 -4 25 5 20 6 -4 11 -1 11 9 0
9 -14 22 -30 29 -17 7 -27 16 -23 20 6 6 -39 56 -52 56 -3 0 -3 -11 1 -25 6
-26 -10 -36 -20 -12 -3 6 -4 3 -3 -8 2 -16 -3 -19 -21 -17 -13 2 -25 -3 -28
-12 -8 -20 -40 -21 -47 -2 -3 8 -3 31 0 50 4 29 2 36 -10 36 -10 0 -14 6 -11
14 3 8 1 17 -5 21 -7 4 -11 -4 -11 -19 0 -20 -5 -26 -21 -26 -11 0 -17 -4 -14
-10 10 -16 -11 -12 -25 5 -7 8 -24 15 -39 14 -41 -1 -94 15 -99 30 -3 9 2 11
18 6 17 -6 21 -4 15 6 -5 8 1 5 14 -5 24 -22 46 -11 35 18 -5 12 -14 16 -29
12 -15 -4 -25 -1 -29 10 -9 24 -8 26 17 19 21 -7 21 -6 5 11 -17 17 -18 17
-31 1 -12 -17 -14 -17 -34 2 -17 16 -29 19 -54 14 -21 -4 -30 -3 -26 4 4 6 -1
13 -11 15 -25 7 -82 -2 -82 -13 0 -5 -9 -4 -20 3 -17 11 -22 10 -30 -2 -8 -12
-12 -13 -19 -1 -6 10 -13 11 -29 2 -14 -7 -23 -8 -27 -1 -4 6 -11 7 -17 4 -17
-11 -59 -13 -52 -3 3 5 1 9 -5 9 -5 0 -15 2 -23 4 -7 2 -23 1 -36 -1z m-122
-63 c0 -5 -5 -10 -11 -10 -5 0 -7 5 -4 10 3 6 8 10 11 10 2 0 4 -4 4 -10z
m690 -115 c0 -10 -10 -15 -32 -15 l-33 0 25 14 c33 19 40 19 40 1z m-110 -57
c0 -4 -7 -8 -15 -8 -8 0 -15 4 -15 8 0 5 7 9 15 9 8 0 15 -4 15 -9z m-690 -73
c0 -8 -4 -15 -10 -15 -5 0 -10 7 -10 15 0 8 5 15 10 15 6 0 10 -7 10 -15z m57
-47 c-3 -8 -6 -5 -6 6 -1 11 2 17 5 13 3 -3 4 -12 1 -19z m1053 -258 c0 -5 -4
-10 -10 -10 -5 0 -10 5 -10 10 0 6 5 10 10 10 6 0 10 -4 10 -10z m-413 -102
c-3 -8 -6 -5 -6 6 -1 11 2 17 5 13 3 -3 4 -12 1 -19z m100 -9 c118 -50 149
-71 136 -92 -3 -5 -8 -5 -12 0 -9 13 -113 45 -120 37 -3 -4 0 -9 7 -11 6 -3
12 -13 12 -24 0 -12 11 -21 33 -28 26 -7 28 -9 9 -10 -13 -1 -36 5 -50 13 -15
8 -40 19 -56 26 -24 9 -27 13 -15 21 7 5 9 9 4 9 -6 0 -17 -6 -24 -12 -11 -10
-13 -10 -7 0 5 8 0 12 -14 12 -15 0 -20 5 -17 14 4 9 0 12 -12 9 -11 -3 -21 2
-24 11 -8 20 -5 20 39 1 36 -15 36 -15 47 15 6 17 12 30 13 30 1 0 24 -9 51
-21z m-72 2 c3 -5 2 -12 -3 -15 -5 -3 -9 1 -9 9 0 17 3 19 12 6z m-130 -31 c3
-5 1 -10 -4 -10 -6 0 -11 5 -11 10 0 6 2 10 4 10 3 0 8 -4 11 -10z m-209 -90
c9 0 12 -4 9 -10 -7 -12 -65 -14 -65 -2 0 15 13 23 28 17 7 -3 20 -5 28 -5z
m-176 -101 c0 -5 -4 -9 -10 -9 -5 0 -10 7 -10 16 0 8 5 12 10 9 6 -3 10 -10
10 -16z m465 -129 c-3 -5 -10 -10 -16 -10 -5 0 -9 5 -9 10 0 6 7 10 16 10 8 0
12 -4 9 -10z m-634 -37 c-12 -20 -14 -14 -5 12 4 9 9 14 11 11 3 -2 0 -13 -6
-23z m373 1 c25 -10 19 -20 -11 -18 -36 3 -35 2 -28 14 7 12 17 12 39 4z m176
-19 c0 -9 7 -18 15 -21 8 -4 12 -10 9 -15 -3 -5 -10 -7 -15 -3 -5 3 -17 0 -25
-7 -13 -11 -18 -10 -25 4 -11 18 -49 24 -49 7 0 -21 -18 -9 -23 16 -4 23 -2
25 22 21 14 -3 36 -8 49 -12 13 -4 22 -4 21 1 -3 16 1 24 11 24 6 0 10 -7 10
-15z m70 -20 c7 -8 8 -15 2 -15 -5 0 -15 7 -22 15 -7 8 -8 15 -2 15 5 0 15 -7
22 -15z m-540 -24 c0 -5 -6 -14 -14 -20 -16 -13 -32 2 -21 19 8 12 35 13 35 1z"/>
<path d="M5495 4130 c3 -5 11 -10 16 -10 6 0 7 5 4 10 -3 6 -11 10 -16 10 -6
0 -7 -4 -4 -10z"/>
<path d="M5511 4863 c-12 -13 -12 -17 2 -25 10 -5 17 -16 17 -23 0 -8 5 -15
11 -15 5 0 7 5 4 10 -12 20 17 9 36 -12 10 -13 18 -17 19 -10 0 6 -4 12 -9 12
-5 0 -11 9 -14 21 -3 12 -10 18 -16 15 -5 -4 -16 4 -23 18 -12 21 -15 22 -27
9z"/>
<path d="M3330 4845 c-10 -12 -9 -15 4 -15 18 0 22 -15 6 -25 -5 -3 -10 0 -10
7 0 10 -2 10 -8 1 -5 -9 -19 -9 -47 -3 -22 5 -49 9 -60 9 -19 0 -19 -1 -1 -8
19 -7 19 -8 0 -16 -10 -4 -25 -7 -31 -6 -7 1 -13 -6 -14 -16 0 -10 -3 -13 -6
-6 -3 10 -10 10 -24 2 -11 -5 -24 -7 -29 -4 -6 4 -9 1 -8 -7 2 -8 -8 -14 -24
-16 -16 -2 -28 -8 -28 -13 0 -6 -5 -7 -11 -4 -6 4 -8 13 -6 19 10 25 -8 37
-31 20 -20 -14 -21 -17 -7 -30 19 -20 19 -44 0 -44 -8 0 -12 6 -9 14 7 19 -22
27 -51 14 -29 -13 -34 -32 -6 -23 11 3 22 1 26 -5 6 -10 -7 -14 -32 -11 -7 1
-13 -3 -13 -9 0 -5 9 -10 21 -10 11 0 17 -4 14 -10 -3 -5 4 -10 16 -10 16 0
20 -5 16 -20 -3 -13 0 -20 10 -20 9 0 13 6 10 15 -5 12 -1 12 21 4 15 -5 33
-17 40 -26 6 -9 12 -13 12 -7 0 5 35 9 78 9 96 1 116 5 146 34 17 16 31 21 45
16 12 -3 19 -10 16 -15 -3 -4 -2 -15 1 -24 5 -13 9 -14 20 -5 8 6 21 9 29 5 9
-3 15 0 15 10 0 8 5 12 10 9 6 -3 10 0 10 9 0 10 12 14 44 14 24 0 52 5 63 10
10 5 27 6 38 1 34 -13 41 -9 18 10 -23 19 -32 38 -13 26 16 -10 40 14 40 40 0
37 -29 40 -37 5 -3 -17 -12 -30 -20 -30 -8 0 -11 4 -8 10 3 5 -1 20 -9 32 -21
29 -21 44 0 24 15 -15 34 -21 34 -11 0 11 -34 44 -42 39 -4 -3 -8 1 -8 9 0 21
-43 30 -53 12 -10 -19 -16 -19 -63 2 -22 10 -43 18 -49 18 -5 0 -15 4 -21 8
-7 4 -17 0 -24 -8z m-70 -55 c0 -5 -4 -10 -10 -10 -5 0 -10 5 -10 10 0 6 5 10
10 10 6 0 10 -4 10 -10z m360 -55 c0 -8 -4 -15 -10 -15 -5 0 -10 7 -10 15 0 8
5 15 10 15 6 0 10 -7 10 -15z"/>
<path d="M3161 4814 c0 -11 3 -14 6 -6 3 7 2 16 -1 19 -3 4 -6 -2 -5 -13z"/>
<path d="M3630 4780 c0 -5 5 -10 10 -10 6 0 10 5 10 10 0 6 -4 10 -10 10 -5 0
-10 -4 -10 -10z"/>
<path d="M2815 4700 c3 -5 8 -10 11 -10 2 0 4 5 4 10 0 6 -5 10 -11 10 -5 0
-7 -4 -4 -10z"/>
<path d="M5680 4695 c-10 -12 -9 -15 8 -15 11 0 25 7 32 15 10 12 9 15 -8 15
-11 0 -25 -7 -32 -15z"/>
<path d="M2906 4616 c-33 -15 -24 -25 20 -24 22 1 30 6 30 19 0 22 -9 22 -50
5z"/>
<path d="M3305 4600 c-3 -6 1 -13 10 -16 19 -8 30 0 20 15 -8 14 -22 14 -30 1z"/>
<path d="M5480 4600 c0 -5 7 -10 16 -10 8 0 12 5 9 10 -3 6 -10 10 -16 10 -5
0 -9 -4 -9 -10z"/>
<path d="M5887 4593 c7 -17 56 -17 51 0 -3 6 -16 12 -30 12 -17 1 -24 -3 -21
-12z"/>
<path d="M5655 4580 c3 -5 13 -10 21 -10 8 0 14 5 14 10 0 6 -9 10 -21 10 -11
0 -17 -4 -14 -10z"/>
<path d="M5691 4559 c-13 -11 -21 -22 -17 -26 3 -3 14 1 24 10 10 10 24 17 30
17 7 0 12 5 12 10 0 16 -23 11 -49 -11z"/>
<path d="M5400 4560 c0 -13 11 -13 30 0 12 8 11 10 -7 10 -13 0 -23 -4 -23
-10z"/>
<path d="M2790 4539 c0 -5 5 -7 10 -4 6 3 10 8 10 11 0 2 -4 4 -10 4 -5 0 -10
-5 -10 -11z"/>
<path d="M5078 4533 c6 -2 18 -2 25 0 6 3 1 5 -13 5 -14 0 -19 -2 -12 -5z"/>
<path d="M5736 4525 c4 -8 8 -15 10 -15 2 0 4 7 4 15 0 8 -4 15 -10 15 -5 0
-7 -7 -4 -15z"/>
<path d="M5907 4529 c7 -7 15 -10 18 -7 3 3 -2 9 -12 12 -14 6 -15 5 -6 -5z"/>
<path d="M5620 4520 c0 -5 5 -10 10 -10 6 0 10 5 10 10 0 6 -4 10 -10 10 -5 0
-10 -4 -10 -10z"/>
<path d="M5868 4513 c7 -3 16 -2 19 1 4 3 -2 6 -13 5 -11 0 -14 -3 -6 -6z"/>
<path d="M5987 4483 c-3 -5 -2 -15 2 -21 9 -15 43 -4 38 12 -5 14 -33 20 -40
9z"/>
<path d="M5470 4450 c0 -5 5 -10 10 -10 6 0 10 5 10 10 0 6 -4 10 -10 10 -5 0
-10 -4 -10 -10z"/>
<path d="M5945 4440 c-3 -5 -1 -10 4 -10 6 0 11 5 11 10 0 6 -2 10 -4 10 -3 0
-8 -4 -11 -10z"/>
<path d="M3355 4399 c-4 -6 -5 -12 -2 -15 2 -3 7 2 10 11 7 17 1 20 -8 4z"/>
<path d="M5740 4394 c0 -8 5 -12 10 -9 6 3 10 10 10 16 0 5 -4 9 -10 9 -5 0
-10 -7 -10 -16z"/>
<path d="M3416 4385 c-3 -8 -16 -15 -29 -15 -27 0 -56 -45 -34 -54 7 -2 2 -5
-10 -5 -26 -1 -34 -41 -8 -41 8 0 15 -4 15 -10 0 -5 -7 -10 -16 -10 -9 0 -14
-7 -12 -17 3 -13 -6 -21 -27 -29 -16 -6 -31 -17 -31 -25 -1 -8 -3 -18 -4 -24
-2 -5 -3 -23 -4 -39 -1 -23 -7 -31 -31 -39 -29 -10 -45 -23 -45 -39 0 -4 6 -5
14 -2 8 3 17 1 20 -4 3 -5 -11 -9 -31 -10 -20 -1 -39 -5 -42 -9 -3 -5 -26 -9
-50 -11 -25 -1 -72 -14 -106 -28 -37 -14 -70 -21 -80 -17 -13 5 -16 3 -10 -7
5 -8 3 -11 -6 -8 -8 3 -13 11 -11 17 1 7 -2 10 -7 6 -6 -3 -8 -12 -4 -20 6
-18 -23 -20 -31 -2 -4 6 -4 2 -2 -10 2 -15 0 -20 -9 -16 -8 2 -41 -3 -75 -11
-34 -9 -73 -16 -86 -16 -14 0 -24 -6 -24 -14 0 -8 -5 -18 -12 -22 -8 -5 -9 -2
-5 9 4 11 1 17 -9 17 -8 0 -19 -10 -24 -22 l-9 -23 0 23 c-1 12 -6 22 -12 22
-6 0 -8 -9 -4 -21 5 -15 4 -19 -4 -15 -6 4 -11 0 -11 -8 0 -9 7 -16 16 -16 15
0 15 -2 0 -25 -20 -30 -20 -35 0 -35 9 0 18 9 21 20 7 26 29 20 25 -6 -2 -17
-1 -17 8 -2 7 11 20 15 42 13 37 -5 56 4 37 17 -10 7 -8 8 6 2 38 -14 105 -16
120 -4 9 7 18 10 22 6 3 -3 0 -6 -7 -6 -7 0 -11 -2 -8 -5 3 -3 56 -10 118 -15
82 -8 116 -7 126 1 8 7 14 7 14 2 0 -6 23 -11 52 -12 28 0 54 -5 57 -9 3 -5
16 -14 29 -21 28 -15 29 -31 1 -31 -17 0 -20 -5 -16 -21 8 -29 -14 -49 -60
-55 -21 -3 -45 -8 -53 -12 -8 -3 -26 -7 -40 -8 -14 -2 -26 -8 -28 -14 -2 -5
-18 -11 -35 -11 -18 -1 -24 -3 -14 -6 9 -2 48 1 85 7 37 7 88 11 115 11 26 -1
47 2 47 7 0 5 19 15 43 22 66 20 97 34 97 44 0 4 9 6 21 3 12 -3 18 -3 15 0
-7 7 57 53 73 53 5 0 16 8 23 18 7 10 21 21 31 25 18 7 24 27 6 27 -5 0 -7 5
-4 10 3 6 15 10 27 10 13 0 18 5 15 14 -6 16 33 66 54 69 42 7 52 43 19 67
-34 25 -20 49 24 41 5 -1 6 12 2 30 -3 17 -6 45 -6 61 0 18 -4 27 -10 23 -12
-7 -40 12 -40 26 0 5 7 6 16 2 13 -5 15 -3 7 13 -6 10 -8 25 -6 32 3 7 -9 18
-26 25 -25 11 -29 16 -18 27 7 8 8 10 1 7 -7 -4 -15 0 -18 9 -4 9 -13 14 -21
10 -9 -3 -15 0 -15 8 0 7 -14 16 -31 20 -17 3 -28 10 -24 16 3 5 0 10 -8 10
-10 0 -13 7 -10 20 3 11 0 20 -6 20 -6 0 -11 -4 -11 -10 0 -5 -5 -10 -12 -10
-9 0 -9 3 0 12 7 7 12 18 12 25 0 18 -27 16 -34 -2z"/>
<path d="M3290 4379 c0 -5 5 -7 10 -4 6 3 10 8 10 11 0 2 -4 4 -10 4 -5 0 -10
-5 -10 -11z"/>
<path d="M5370 4375 c0 -8 4 -15 9 -15 5 0 11 7 15 15 3 9 0 15 -9 15 -8 0
-15 -7 -15 -15z"/>
<path d="M3501 4350 c-16 -9 -6 -30 15 -30 15 0 20 25 6 34 -4 2 -14 1 -21 -4z"/>
<path d="M4896 4324 c-5 -12 -2 -15 10 -10 8 3 18 6 20 6 2 0 4 5 4 10 0 16
-27 11 -34 -6z"/>
<path d="M6020 4309 c0 -5 5 -7 10 -4 6 3 10 8 10 11 0 2 -4 4 -10 4 -5 0 -10
-5 -10 -11z"/>
<path d="M3570 4299 c0 -6 7 -8 16 -5 8 3 12 2 9 -4 -3 -6 -1 -10 4 -10 6 0
11 7 11 15 0 8 -9 15 -20 15 -11 0 -20 -5 -20 -11z"/>
<path d="M5525 4290 c-3 -4 6 -10 20 -12 14 -3 25 -2 25 2 0 11 -39 20 -45 10z"/>
<path d="M3618 4263 c7 -3 16 -2 19 1 4 3 -2 6 -13 5 -11 0 -14 -3 -6 -6z"/>
<path d="M3620 4239 c0 -5 5 -7 10 -4 6 3 10 8 10 11 0 2 -4 4 -10 4 -5 0 -10
-5 -10 -11z"/>
<path d="M5200 4240 c0 -5 5 -10 10 -10 6 0 10 5 10 10 0 6 -4 10 -10 10 -5 0
-10 -4 -10 -10z"/>
<path d="M5250 4238 c0 -4 4 -8 9 -8 6 0 12 4 15 8 3 5 -1 9 -9 9 -8 0 -15 -4
-15 -9z"/>
<path d="M5103 4233 c-13 -2 -23 -9 -23 -14 0 -15 46 -10 60 6 13 16 9 17 -37
8z"/>
<path d="M3265 4220 c-3 -5 -2 -10 4 -10 5 0 13 5 16 10 3 6 2 10 -4 10 -5 0
-13 -4 -16 -10z"/>
<path d="M5957 4203 c-4 -3 -7 -11 -7 -17 0 -6 5 -5 12 2 6 6 9 14 7 17 -3 3
-9 2 -12 -2z"/>
<path d="M2065 4179 c-4 -6 -5 -13 -2 -16 7 -7 27 6 27 18 0 12 -17 12 -25 -2z"/>
<path d="M3070 4181 c0 -5 9 -7 20 -4 11 3 20 7 20 9 0 2 -9 4 -20 4 -11 0
-20 -4 -20 -9z"/>
<path d="M3190 4125 c0 -8 7 -15 15 -15 8 0 15 4 15 9 0 5 -7 11 -15 15 -9 3
-15 0 -15 -9z"/>
<path d="M5037 4120 c-3 -12 0 -20 8 -20 8 0 11 8 8 20 -3 11 -7 20 -8 20 -1
0 -5 -9 -8 -20z"/>
<path d="M2588 4043 c7 -3 16 -2 19 1 4 3 -2 6 -13 5 -11 0 -14 -3 -6 -6z"/>
<path d="M2805 4000 c-3 -5 1 -10 9 -10 9 0 16 5 16 10 0 6 -4 10 -9 10 -6 0
-13 -4 -16 -10z"/>
<path d="M2768 3993 c7 -3 16 -2 19 1 4 3 -2 6 -13 5 -11 0 -14 -3 -6 -6z"/>
<path d="M2693 3963 c-24 -5 -38 -32 -24 -46 12 -12 31 0 31 19 0 8 6 14 14
14 8 0 18 5 21 10 6 10 -2 11 -42 3z"/>
<path d="M2067 3924 c-4 -4 -7 -14 -7 -23 0 -11 3 -12 11 -4 6 6 10 16 7 23
-2 6 -7 8 -11 4z"/>
<path d="M4610 3814 c0 -7 11 -16 25 -20 38 -9 41 2 6 19 -26 13 -31 13 -31 1z"/>
<path d="M5638 3785 c-4 -17 -1 -25 8 -25 8 0 14 9 14 19 0 30 -17 34 -22 6z"/>
<path d="M5700 3740 c0 -5 4 -10 9 -10 6 0 13 5 16 10 3 6 -1 10 -9 10 -9 0
-16 -4 -16 -10z"/>
<path d="M3115 3730 c-3 -5 -1 -10 4 -10 6 0 11 5 11 10 0 6 -2 10 -4 10 -3 0
-8 -4 -11 -10z"/>
<path d="M5585 3720 c-3 -5 -1 -10 4 -10 6 0 11 5 11 10 0 6 -2 10 -4 10 -3 0
-8 -4 -11 -10z"/>
<path d="M3180 3693 c0 -11 7 -20 15 -20 12 0 12 3 3 16 -7 9 -14 18 -15 20
-2 2 -3 -5 -3 -16z"/>
<path d="M5900 3700 c0 -5 5 -10 10 -10 6 0 10 5 10 10 0 6 -4 10 -10 10 -5 0
-10 -4 -10 -10z"/>
<path d="M4720 3650 c0 -5 7 -10 16 -10 8 0 12 5 9 10 -3 6 -10 10 -16 10 -5
0 -9 -4 -9 -10z"/>
<path d="M4760 3640 c0 -5 5 -10 10 -10 6 0 10 5 10 10 0 6 -4 10 -10 10 -5 0
-10 -4 -10 -10z"/>
<path d="M5630 3640 c0 -5 4 -10 9 -10 6 0 13 5 16 10 3 6 -1 10 -9 10 -9 0
-16 -4 -16 -10z"/>
<path d="M4966 3607 c3 -10 9 -15 12 -12 3 3 0 11 -7 18 -10 9 -11 8 -5 -6z"/>
<path d="M4870 3586 c0 -2 7 -7 16 -10 8 -3 12 -2 9 4 -6 10 -25 14 -25 6z"/>
<path d="M5135 3560 c-4 -6 9 -10 31 -10 42 0 42 4 2 14 -15 3 -30 2 -33 -4z"/>
<path d="M4858 3553 c6 -2 18 -2 25 0 6 3 1 5 -13 5 -14 0 -19 -2 -12 -5z"/>
<path d="M5380 3490 c8 -5 20 -10 25 -10 6 0 3 5 -5 10 -8 5 -19 10 -25 10 -5
0 -3 -5 5 -10z"/>
<path d="M4988 3473 c7 -3 16 -2 19 1 4 3 -2 6 -13 5 -11 0 -14 -3 -6 -6z"/>
<path d="M5430 3470 c0 -5 5 -10 10 -10 6 0 10 5 10 10 0 6 -4 10 -10 10 -5 0
-10 -4 -10 -10z"/>
<path d="M5340 3431 l-25 -7 28 -7 c30 -8 51 -1 42 14 -7 10 -9 10 -45 0z"/>
<path d="M5205 3360 c-3 -5 -1 -10 4 -10 6 0 11 5 11 10 0 6 -2 10 -4 10 -3 0
-8 -4 -11 -10z"/>
<path d="M4830 3340 c0 -5 5 -10 10 -10 6 0 10 5 10 10 0 6 -4 10 -10 10 -5 0
-10 -4 -10 -10z"/>
<path d="M4760 3333 c8 -3 18 -11 22 -17 5 -7 8 -4 8 7 0 11 -7 17 -22 16 -16
0 -18 -2 -8 -6z"/>
<path d="M4855 3283 c4 -16 8 -40 10 -56 2 -15 16 -42 30 -60 14 -19 25 -41
25 -50 0 -9 6 -20 13 -24 30 -18 52 -192 27 -208 -5 -3 -10 -17 -10 -31 0 -30
-10 -30 -44 1 -24 23 -38 63 -16 50 6 -3 10 1 10 10 0 10 6 15 13 12 8 -3 13
3 13 14 0 12 -4 15 -10 9 -17 -17 -36 -12 -30 8 3 9 -2 6 -10 -8 -8 -14 -16
-36 -16 -50 l-1 -25 -10 25 c-7 17 -7 26 0 28 26 9 9 23 -19 17 -26 -6 -30 -4
-30 15 0 12 -4 19 -9 16 -9 -6 -24 81 -15 95 3 5 0 9 -5 9 -6 0 -11 -4 -11
-10 0 -5 -7 -10 -16 -10 -10 0 -14 6 -10 15 3 9 0 15 -9 15 -22 0 -30 22 -12
35 10 7 17 15 17 19 0 10 -22 32 -40 39 -12 4 -11 6 3 6 15 1 16 4 7 21 -6 11
-15 18 -21 15 -5 -4 -9 0 -9 7 0 14 -44 17 -57 5 -3 -4 -22 -4 -40 -1 -32 6
-46 -7 -23 -21 13 -8 13 -25 -1 -25 -5 0 -7 4 -4 10 3 5 0 7 -8 4 -9 -3 -13
-13 -9 -27 3 -12 1 -19 -3 -15 -4 4 -8 21 -7 38 0 16 -4 30 -9 30 -5 0 -9 -5
-9 -11 0 -22 -29 -40 -55 -33 -21 5 -25 3 -25 -15 0 -21 -34 -46 -49 -36 -5 3
-8 -3 -7 -12 2 -9 8 -19 14 -21 23 -7 11 -22 -18 -22 -16 0 -30 -4 -30 -10 0
-5 3 -10 8 -11 4 0 16 -2 27 -3 11 -1 28 -7 37 -12 15 -8 15 -11 1 -29 -15
-20 -15 -20 -8 3 5 16 2 22 -9 22 -10 0 -13 -6 -10 -15 4 -8 1 -22 -6 -30 -15
-18 -5 -35 21 -35 10 0 19 -4 19 -10 0 -13 -23 -13 -37 1 -13 13 -33 4 -33
-16 0 -7 -14 -17 -32 -20 -30 -7 -31 -8 -13 -21 17 -12 17 -14 2 -14 -9 0 -17
-4 -17 -10 0 -5 5 -10 10 -10 6 0 10 -6 10 -14 0 -8 6 -17 13 -19 9 -4 8 -8
-3 -16 -12 -9 -12 -11 -1 -11 9 0 7 -6 -7 -19 -22 -19 -30 -61 -12 -61 6 0 10
-9 10 -20 0 -16 5 -19 30 -14 22 5 31 2 36 -10 9 -24 33 -19 44 10 6 14 14 23
20 19 5 -3 7 -12 3 -20 -3 -8 0 -15 6 -15 7 0 14 7 18 16 5 14 9 13 24 -7 10
-13 19 -19 19 -12 0 6 -4 15 -10 18 -5 3 -10 14 -10 23 1 13 6 10 25 -11 14
-16 29 -26 34 -22 5 3 12 1 16 -5 3 -6 -1 -13 -9 -16 -9 -3 -13 -10 -10 -15 3
-5 9 -7 14 -4 4 3 13 -2 20 -10 8 -9 8 -15 2 -15 -6 0 -13 6 -15 13 -4 7 -6 6
-6 -5 -1 -12 -7 -15 -23 -11 -19 5 -21 3 -10 -8 16 -18 15 -29 -3 -29 -8 0
-15 -7 -15 -15 0 -18 16 -20 23 -2 4 8 6 8 6 -2 1 -11 5 -10 16 5 14 18 16 18
29 2 19 -25 29 -22 24 7 -7 36 9 31 26 -7 9 -20 15 -26 15 -15 1 11 9 17 26
17 14 0 25 5 25 10 0 6 -8 10 -17 10 -20 0 -9 13 14 16 22 4 46 -28 30 -38 -9
-6 -9 -8 1 -8 19 0 26 28 12 45 -17 20 -6 19 15 -1 20 -21 98 -27 91 -7 -3 8
2 13 13 13 10 0 30 9 45 21 25 20 38 21 77 5 12 -5 15 -1 15 15 -1 18 7 25 41
33 23 6 50 18 60 27 10 8 25 15 33 15 16 -1 60 45 60 63 0 6 4 11 9 11 13 0
30 55 24 78 -3 14 2 21 17 25 16 4 21 11 16 22 -3 9 -6 24 -6 32 0 13 -3 13
-26 -2 -21 -14 -28 -15 -35 -4 -11 18 -2 29 23 29 33 0 3 28 -38 36 -41 8 -45
24 -6 25 15 1 20 3 11 6 -9 2 -24 22 -34 43 -10 22 -22 37 -28 33 -6 -4 -8 5
-4 25 4 17 2 34 -3 37 -6 4 -8 11 -5 16 4 5 0 9 -9 9 -8 0 -16 -6 -19 -12 -3
-10 -9 -9 -22 4 -17 16 -17 17 4 11 19 -5 22 -2 19 13 -2 15 -13 20 -51 22
-43 3 -47 5 -35 19 11 15 10 16 -10 10 -17 -4 -22 -2 -19 7 3 7 -1 13 -9 13
-7 0 -10 -5 -7 -11 3 -6 0 -5 -8 2 -7 6 -17 12 -22 12 -4 0 -5 -6 -1 -12 5 -9
2 -9 -9 1 -12 9 -17 10 -17 2 0 -7 -4 -10 -10 -6 -5 3 -7 12 -3 20 3 8 0 15
-7 15 -8 0 -10 -9 -5 -27z m-392 -297 c-21 -28 -24 -28 -16 2 3 12 12 22 20
22 11 0 10 -5 -4 -24z m700 -3 c-7 -2 -19 -2 -25 0 -7 3 -2 5 12 5 14 0 19 -2
13 -5z m-798 -83 c3 -5 1 -10 -4 -10 -6 0 -11 5 -11 10 0 6 2 10 4 10 3 0 8
-4 11 -10z m51 -27 c-10 -10 -19 5 -10 18 6 11 8 11 12 0 2 -7 1 -15 -2 -18z
m489 -213 c3 -5 3 -10 -2 -11 -4 0 -16 -2 -25 -4 -20 -4 -24 11 -5 18 19 8 25
8 32 -3z m-105 -4 c0 -3 -4 -8 -10 -11 -5 -3 -10 -1 -10 4 0 6 5 11 10 11 6 0
10 -2 10 -4z m75 -36 c-28 -12 -45 -12 -45 0 0 6 15 10 33 9 27 0 29 -2 12 -9z"/>
<path d="M5080 3269 c0 -11 5 -17 10 -14 6 3 10 13 10 21 0 8 -4 14 -10 14 -5
0 -10 -9 -10 -21z"/>
<path d="M5130 3190 c0 -5 4 -10 9 -10 6 0 13 5 16 10 3 6 -1 10 -9 10 -9 0
-16 -4 -16 -10z"/>
<path d="M5198 3180 c-7 -24 -3 -38 8 -28 3 4 4 17 2 30 l-3 23 -7 -25z"/>
<path d="M4305 3070 c3 -5 8 -10 11 -10 2 0 4 5 4 10 0 6 -5 10 -11 10 -5 0
-7 -4 -4 -10z"/>
<path d="M3950 3032 c-25 -8 -50 -22 -57 -31 -6 -9 -14 -13 -18 -10 -7 8 -55
-37 -55 -52 0 -6 -11 -30 -25 -54 -15 -25 -22 -46 -16 -49 5 -4 14 1 19 10 6
10 12 13 16 6 3 -6 0 -17 -7 -24 -8 -8 -14 -30 -13 -51 1 -25 -3 -37 -13 -37
-8 0 -11 -6 -7 -16 3 -9 6 -18 6 -20 0 -2 7 -4 15 -4 8 0 15 -4 15 -10 0 -5 5
-10 11 -10 5 0 7 6 3 13 -6 10 -4 10 7 0 19 -18 59 -16 59 2 0 8 4 15 9 15 26
0 42 33 36 73 -7 40 -7 40 21 34 16 -3 51 0 77 6 37 8 52 17 63 39 8 15 21 28
29 28 9 0 12 6 9 15 -4 9 0 15 8 15 31 0 1 84 -41 117 -21 17 -96 14 -151 -5z
m-33 -244 c-3 -7 -5 -2 -5 12 0 14 2 19 5 13 2 -7 2 -19 0 -25z"/>
<path d="M5190 3020 c0 -5 5 -10 11 -10 5 0 7 5 4 10 -3 6 -8 10 -11 10 -2 0
-4 -4 -4 -10z"/>
<path d="M4335 3010 c-3 -5 1 -10 9 -10 9 0 16 5 16 10 0 6 -4 10 -9 10 -6 0
-13 -4 -16 -10z"/>
<path d="M4827 2973 c-4 -3 -7 -11 -7 -17 0 -6 5 -5 12 2 6 6 9 14 7 17 -3 3
-9 2 -12 -2z"/>
<path d="M6230 2856 c0 -9 5 -16 10 -16 6 0 10 4 10 9 0 6 -4 13 -10 16 -5 3
-10 -1 -10 -9z"/>
<path d="M5220 2811 c0 -5 7 -11 14 -14 10 -4 13 -1 9 9 -6 15 -23 19 -23 5z"/>
<path d="M3750 2799 c0 -5 5 -7 10 -4 6 3 10 8 10 11 0 2 -4 4 -10 4 -5 0 -10
-5 -10 -11z"/>
<path d="M4260 2800 c-8 -5 -11 -12 -7 -16 4 -4 13 -2 19 4 15 15 7 24 -12 12z"/>
<path d="M6260 2786 c0 -9 5 -16 10 -16 6 0 10 4 10 9 0 6 -4 13 -10 16 -5 3
-10 -1 -10 -9z"/>
<path d="M5238 2773 c-25 -6 -23 -22 2 -20 11 1 20 7 20 14 0 7 -1 12 -2 12
-2 -1 -11 -3 -20 -6z"/>
<path d="M5156 2731 c-4 -5 -2 -12 3 -15 5 -4 12 -2 15 3 4 5 2 12 -3 15 -5 4
-12 2 -15 -3z"/>
<path d="M6220 2732 c0 -5 7 -9 15 -9 8 0 12 4 9 9 -3 4 -9 8 -15 8 -5 0 -9
-4 -9 -8z"/>
<path d="M3740 2719 c0 -5 5 -7 10 -4 6 3 10 8 10 11 0 2 -4 4 -10 4 -5 0 -10
-5 -10 -11z"/>
<path d="M6100 2710 c0 -5 5 -10 11 -10 5 0 7 5 4 10 -3 6 -8 10 -11 10 -2 0
-4 -4 -4 -10z"/>
<path d="M4386 2563 c-6 -14 -5 -15 5 -6 7 7 10 15 7 18 -3 3 -9 -2 -12 -12z"/>
<path d="M4438 2573 c6 -2 18 -2 25 0 6 3 1 5 -13 5 -14 0 -19 -2 -12 -5z"/>
<path d="M6040 2520 c0 -5 5 -10 11 -10 5 0 7 5 4 10 -3 6 -8 10 -11 10 -2 0
-4 -4 -4 -10z"/>
<path d="M4530 2491 c0 -5 9 -11 20 -14 13 -3 20 0 20 9 0 8 -9 14 -20 14 -11
0 -20 -4 -20 -9z"/>
<path d="M4610 2490 c0 -12 25 -30 41 -30 12 0 16 6 12 19 -3 12 -13 18 -29
17 -13 0 -24 -3 -24 -6z"/>
<path d="M4815 2474 c9 -9 18 -14 21 -11 9 9 -6 27 -22 27 -13 0 -13 -2 1 -16z"/>
<path d="M4394 2435 c1 -33 16 -33 16 0 0 14 -4 25 -9 25 -5 0 -8 -11 -7 -25z"/>
<path d="M4330 2405 c0 -16 16 -20 24 -6 3 5 -1 11 -9 15 -9 3 -15 0 -15 -9z"/>
<path d="M4700 2410 c0 -5 4 -10 9 -10 6 0 13 5 16 10 3 6 -1 10 -9 10 -9 0
-16 -4 -16 -10z"/>
<path d="M6020 2410 c0 -12 28 -21 35 -11 2 5 -4 11 -15 14 -11 3 -20 2 -20
-3z"/>
<path d="M5057 2333 c-10 -9 -9 -53 1 -53 5 0 9 14 9 30 0 33 -1 33 -10 23z"/>
<path d="M4995 2300 c-3 -5 -1 -10 4 -10 6 0 11 5 11 10 0 6 -2 10 -4 10 -3 0
-8 -4 -11 -10z"/>
<path d="M5180 2279 c0 -11 4 -18 10 -14 5 3 7 12 3 20 -7 21 -13 19 -13 -6z"/>
<path d="M6190 2269 c-13 -8 -13 -10 0 -19 21 -14 30 -12 30 4 0 20 -13 27
-30 15z"/>
<path d="M5065 2256 c-11 -8 -25 -12 -32 -9 -9 4 -13 -5 -13 -25 0 -17 -5 -34
-12 -38 -8 -5 -9 -2 -5 9 4 11 1 17 -8 17 -8 0 -15 6 -15 13 0 6 -5 4 -11 -6
-6 -10 -9 -19 -7 -20 53 -27 59 -44 22 -53 -18 -5 -29 -3 -32 5 -3 9 -7 9 -18
0 -12 -10 -17 -8 -28 7 -13 17 -19 17 -58 7 -35 -10 -47 -9 -65 3 -12 7 -29
11 -38 8 -12 -5 -16 -2 -13 11 2 11 -6 21 -19 26 -20 7 -23 5 -24 -14 0 -21
-1 -21 -10 3 -10 23 -11 24 -23 8 -17 -24 -26 -23 -26 3 0 17 -5 20 -21 16
-15 -4 -19 -2 -15 9 3 8 1 14 -3 14 -5 0 -12 -7 -15 -16 -6 -15 -9 -15 -32 1
-29 19 -26 20 -61 -37 -19 -30 -39 -38 -105 -38 -27 0 -48 -5 -48 -11 0 -5 -4
-7 -10 -4 -14 9 -13 -8 2 -23 9 -9 9 -12 -2 -12 -9 0 -7 -5 6 -14 14 -11 21
-11 26 -3 6 9 8 9 8 -1 0 -7 -7 -15 -15 -18 -8 -3 -17 -14 -20 -25 -4 -11 -11
-17 -16 -14 -5 4 -9 -1 -9 -9 0 -19 -27 -24 -69 -13 -18 5 -43 6 -54 3 -12 -3
-28 0 -36 7 -11 9 -13 9 -8 0 12 -19 -13 -26 -32 -9 -13 12 -32 14 -86 10 -39
-3 -91 -7 -118 -8 -26 -2 -50 -6 -54 -9 -3 -4 -13 -2 -20 5 -11 9 -17 9 -24
-3 -7 -11 -9 -11 -9 4 0 9 -4 17 -10 17 -5 0 -7 -6 -4 -13 3 -10 -5 -13 -30
-13 -19 1 -38 4 -42 9 -4 4 -14 7 -22 7 -9 0 -12 -3 -9 -7 7 -7 -22 -32 -38
-33 -5 0 -3 4 5 10 21 13 7 22 -47 28 -43 5 -47 3 -35 -11 8 -9 9 -18 4 -21
-6 -3 -12 1 -16 9 -5 15 -36 21 -36 7 0 -10 -60 -36 -67 -28 -4 3 -1 6 6 6 8
0 11 6 7 16 -5 12 -2 15 11 10 11 -4 9 1 -6 13 -14 10 -42 22 -63 25 -22 4
-36 11 -33 16 4 6 10 8 14 6 4 -3 12 4 19 15 15 23 7 25 -15 3 -9 -8 -22 -13
-29 -10 -9 3 -11 0 -7 -11 4 -9 -1 -21 -12 -29 -13 -9 -14 -14 -5 -14 7 0 11
-3 8 -6 -4 -3 -16 0 -28 6 -32 17 -60 20 -60 7 0 -7 -11 -17 -25 -24 -18 -8
-25 -8 -25 0 0 8 -3 8 -11 0 -12 -12 -3 -53 12 -53 5 0 9 -5 9 -11 0 -6 -9 -9
-20 -6 -18 4 -20 0 -20 -35 0 -35 -2 -39 -20 -33 -11 4 -20 2 -20 -4 0 -6 5
-11 11 -11 6 0 3 -7 -5 -16 -9 -8 -14 -19 -11 -24 3 -5 -1 -11 -7 -13 -7 -3
-4 -6 7 -6 16 -1 17 -3 5 -10 -8 -6 -18 -7 -22 -5 -4 3 -8 -8 -8 -25 0 -16 -5
-33 -10 -36 -15 -9 -2 -25 21 -25 10 0 19 -4 19 -9 0 -16 30 -21 51 -8 16 10
21 9 29 -3 8 -12 10 -11 10 7 0 30 40 69 67 65 14 -2 23 4 28 17 3 12 11 21
16 21 5 0 9 6 9 13 0 13 45 37 71 37 10 0 20 -6 22 -12 4 -10 8 -10 16 2 5 8
7 18 5 22 -3 4 0 8 7 8 6 0 9 8 6 20 -6 23 12 27 32 8 11 -11 13 -10 8 4 -9
26 17 42 37 23 10 -11 16 -12 16 -4 0 17 31 38 58 39 12 0 22 3 22 8 0 4 28 8
62 10 34 1 66 6 71 11 5 5 16 7 23 4 8 -3 14 1 14 8 0 11 2 11 8 1 9 -13 42
-6 42 9 0 5 4 9 10 9 5 0 9 -6 7 -12 -1 -8 7 -12 18 -11 34 4 78 3 134 -1 30
-3 70 -6 90 -8 21 -1 42 -10 49 -21 11 -14 17 -15 27 -7 8 7 18 9 23 6 5 -3
23 -1 40 3 20 6 32 6 34 -1 3 -8 11 -7 26 1 12 7 27 9 32 6 6 -3 7 1 4 9 -3 9
-1 16 5 16 6 0 11 -4 11 -10 0 -5 7 -10 15 -10 8 0 15 5 15 10 0 6 7 10 15 10
8 0 15 -4 15 -9 0 -5 11 -11 25 -13 14 -3 25 -1 25 4 0 5 5 6 12 2 18 -11 61
-12 76 -1 6 5 12 6 12 1 0 -5 5 -2 10 6 9 13 11 13 19 1 5 -8 22 -15 38 -16
15 -2 32 -3 38 -4 5 -1 4 -6 -3 -13 -18 -18 -14 -38 8 -38 11 0 20 7 20 16 0
11 6 14 23 8 12 -4 25 -12 29 -18 4 -6 8 1 8 17 0 15 4 27 9 27 4 0 6 -11 3
-25 -2 -15 0 -25 7 -25 6 0 11 5 11 10 0 12 70 13 88 2 16 -11 4 -45 -13 -38
-8 3 -16 -5 -19 -19 -3 -13 -8 -31 -11 -42 -3 -10 1 -4 9 12 14 28 15 28 16 7
0 -15 5 -22 13 -19 6 2 17 -5 24 -17 8 -14 12 -16 13 -6 0 13 1 13 10 0 9 -13
10 -13 10 1 0 13 9 14 53 9 28 -4 53 -4 55 1 2 4 10 5 18 2 8 -3 14 0 14 6 0
6 4 11 10 11 5 0 6 -8 3 -17 -5 -12 -2 -15 10 -10 9 3 19 2 22 -3 4 -6 1 -10
-4 -10 -18 0 -12 -29 8 -40 26 -14 28 -13 34 10 3 11 16 24 30 29 14 5 28 14
31 19 4 6 20 7 42 2 74 -17 126 32 74 70 -22 16 -26 36 -9 42 9 3 9 9 0 25 -6
12 -11 33 -11 48 0 15 -4 24 -10 20 -5 -3 -10 -1 -10 4 0 10 14 15 33 12 4 0
7 6 7 14 0 8 -4 15 -10 15 -5 0 -10 -5 -10 -11 0 -6 -7 -9 -15 -5 -10 4 -15
-1 -16 -17 0 -16 -6 -10 -20 23 -16 34 -22 41 -29 30 -6 -8 -10 -13 -11 -10 0
3 -2 19 -5 35 -7 51 -31 109 -39 95 -5 -8 -13 -6 -27 9 -21 23 -41 20 -31 -4
3 -8 0 -15 -6 -15 -6 0 -11 11 -11 25 0 14 5 25 10 25 6 0 10 5 10 11 0 5 -4
7 -10 4 -5 -3 -10 1 -10 9 0 20 -20 20 -45 2z m-620 -117 c10 -15 2 -19 -23
-12 -12 3 -19 9 -16 14 7 12 31 11 39 -2z m745 -39 c0 -5 -4 -10 -10 -10 -5 0
-10 5 -10 10 0 6 5 10 10 10 6 0 10 -4 10 -10z m-1925 -110 c-3 -5 -10 -10
-16 -10 -5 0 -9 5 -9 10 0 6 7 10 16 10 8 0 12 -4 9 -10z"/>
<path d="M5991 2254 c0 -11 3 -14 6 -6 3 7 2 16 -1 19 -3 4 -6 -2 -5 -13z"/>
<path d="M5150 2248 c0 -9 5 -20 10 -23 13 -8 13 5 0 25 -8 13 -10 13 -10 -2z"/>
<path d="M5262 2248 c5 -12 -1 -15 -25 -15 -36 1 -39 -2 -31 -42 8 -39 43 -33
37 7 l-4 27 20 -23 c11 -13 26 -21 33 -19 10 4 10 6 1 6 -7 1 -13 14 -13 30 0
17 -5 33 -12 37 -7 5 -9 2 -6 -8z"/>
<path d="M6038 2223 c7 -3 16 -2 19 1 4 3 -2 6 -13 5 -11 0 -14 -3 -6 -6z"/>
<path d="M4375 2200 c-3 -5 1 -10 9 -10 8 0 18 5 21 10 3 6 -1 10 -9 10 -8 0
-18 -4 -21 -10z"/>
<path d="M6001 2194 c0 -11 3 -14 6 -6 3 7 2 16 -1 19 -3 4 -6 -2 -5 -13z"/>
<path d="M5368 2163 c7 -3 16 -2 19 1 4 3 -2 6 -13 5 -11 0 -14 -3 -6 -6z"/>
<path d="M6077 2154 c4 -12 3 -15 -5 -10 -7 4 -12 1 -12 -8 0 -9 7 -16 15 -16
17 0 21 35 5 45 -6 4 -7 -1 -3 -11z"/>
<path d="M4226 2145 c4 -8 7 -15 9 -15 2 0 5 7 9 15 3 9 0 15 -9 15 -9 0 -12
-6 -9 -15z"/>
<path d="M2280 2106 c0 -9 5 -16 10 -16 6 0 10 4 10 9 0 6 -4 13 -10 16 -5 3
-10 -1 -10 -9z"/>
<path d="M3310 2113 c0 -5 5 -15 10 -23 8 -12 10 -11 10 8 0 12 -4 22 -10 22
-5 0 -10 -3 -10 -7z"/>
<path d="M4190 2100 c0 -5 4 -10 9 -10 6 0 13 5 16 10 3 6 -1 10 -9 10 -9 0
-16 -4 -16 -10z"/>
<path d="M6055 2100 c-3 -5 3 -10 15 -10 12 0 18 5 15 10 -3 6 -10 10 -15 10
-5 0 -12 -4 -15 -10z"/>
<path d="M6110 2050 c0 -5 5 -10 10 -10 6 0 10 5 10 10 0 6 -4 10 -10 10 -5 0
-10 -4 -10 -10z"/>
<path d="M3498 2043 c7 -3 16 -2 19 1 4 3 -2 6 -13 5 -11 0 -14 -3 -6 -6z"/>
<path d="M3165 2010 c-3 -5 -1 -10 4 -10 6 0 11 5 11 10 0 6 -2 10 -4 10 -3 0
-8 -4 -11 -10z"/>
<path d="M3121 1984 c0 -11 3 -14 6 -6 3 7 2 16 -1 19 -3 4 -6 -2 -5 -13z"/>
<path d="M6093 1993 c-18 -7 -16 -23 2 -23 8 0 15 7 15 15 0 8 -1 15 -2 14 -2
0 -9 -3 -15 -6z"/>
<path d="M5860 1969 c0 -5 5 -7 10 -4 6 3 10 8 10 11 0 2 -4 4 -10 4 -5 0 -10
-5 -10 -11z"/>
<path d="M5400 1944 c0 -14 4 -23 10 -19 6 3 10 15 10 26 0 10 -4 19 -10 19
-5 0 -10 -12 -10 -26z"/>
<path d="M4598 1943 c7 -3 16 -2 19 1 4 3 -2 6 -13 5 -11 0 -14 -3 -6 -6z"/>
<path d="M4620 1930 c-9 -6 -10 -10 -3 -10 6 0 15 5 18 10 8 12 4 12 -15 0z"/>
<path d="M5375 1919 c-4 -6 -5 -12 -2 -15 2 -3 7 2 10 11 7 17 1 20 -8 4z"/>
<path d="M5965 1920 c-3 -5 -1 -10 4 -10 6 0 11 5 11 10 0 6 -2 10 -4 10 -3 0
-8 -4 -11 -10z"/>
<path d="M4716 1904 c-8 -22 -8 -26 3 -19 5 3 12 -3 14 -12 3 -12 5 -8 6 9 1
31 -14 46 -23 22z"/>
<path d="M5856 1842 c-2 -4 4 -13 14 -19 15 -10 17 -9 13 8 -5 20 -18 25 -27
11z"/>
<path d="M3480 1830 c0 -5 5 -10 11 -10 5 0 7 5 4 10 -3 6 -8 10 -11 10 -2 0
-4 -4 -4 -10z"/>
<path d="M4690 1817 c0 -8 10 -19 23 -25 21 -10 20 -11 -10 -11 -23 -1 -33 4
-33 14 0 18 -5 18 -30 5 -13 -7 -19 -6 -24 6 -3 8 -11 12 -17 9 -6 -4 -8 -14
-5 -22 4 -11 2 -13 -9 -10 -8 4 -21 -1 -30 -9 -8 -9 -15 -11 -15 -5 0 6 -9 11
-20 11 -11 0 -20 -7 -20 -15 0 -18 -26 -20 -33 -2 -3 7 -6 5 -6 -5 -1 -9 6
-21 15 -26 12 -6 13 -11 5 -16 -6 -4 -18 0 -27 8 -20 20 -54 21 -54 1 0 -8 -5
-15 -11 -15 -6 0 -9 -9 -6 -19 4 -17 2 -18 -19 -11 -13 5 -26 6 -28 1 -3 -5
-16 -6 -29 -4 -14 3 -31 -2 -40 -11 -8 -9 -22 -16 -29 -16 -8 -1 -7 -5 5 -14
11 -8 14 -17 8 -20 -5 -4 -12 -2 -16 4 -4 6 -11 8 -16 5 -5 -3 -6 2 -2 11 5
14 2 16 -20 12 -15 -3 -27 -1 -27 3 0 14 -28 11 -34 -3 -5 -10 -7 -10 -12 0
-7 14 -50 16 -59 2 -3 -5 0 -10 7 -10 10 0 10 -2 -1 -9 -19 -13 -3 -33 20 -26
16 5 20 3 17 -11 -2 -12 5 -20 22 -24 32 -9 55 7 39 26 -9 12 -3 13 37 7 55
-7 71 -21 46 -39 -16 -12 -16 -14 2 -27 20 -15 16 -54 -5 -41 -19 12 -29 -19
-14 -43 13 -19 13 -24 0 -37 -8 -8 -12 -22 -9 -31 4 -10 1 -21 -7 -26 -12 -8
-12 -10 1 -18 8 -5 17 -8 21 -5 4 2 6 -8 5 -22 -1 -19 -5 -24 -18 -20 -12 3
-18 -2 -18 -14 0 -11 -4 -22 -10 -25 -18 -11 -10 -25 14 -25 14 0 31 7 39 15
13 13 16 12 23 -3 4 -9 6 -26 5 -37 -2 -17 0 -17 9 -5 6 10 13 11 18 4 7 -10
68 -11 79 -1 3 4 13 2 23 -3 12 -6 17 -5 17 5 0 7 -6 11 -14 8 -7 -3 -13 0
-13 7 0 6 -4 8 -10 5 -16 -10 -12 11 5 25 12 10 15 10 15 -1 0 -29 23 11 26
45 3 34 2 36 -24 31 -15 -3 -21 -2 -14 1 6 3 12 12 12 19 0 18 -72 77 -86 71
-7 -3 -10 3 -7 15 4 15 9 17 24 8 23 -12 39 -4 39 18 0 11 -6 14 -24 9 -32 -8
-40 4 -15 25 14 12 16 18 7 22 -7 3 1 5 17 5 17 0 24 -2 18 -5 -18 -7 -16 -33
2 -33 8 0 15 -6 15 -14 0 -9 7 -12 20 -9 13 4 20 13 19 27 -5 51 -1 56 41 56
22 0 40 5 40 11 0 5 5 7 10 4 25 -16 70 -23 76 -13 4 6 2 8 -4 4 -6 -3 -13 -2
-17 4 -3 6 4 10 17 10 22 1 22 1 5 14 -16 13 -13 14 28 18 31 2 50 -1 58 -10
9 -11 13 -8 24 12 8 14 22 26 32 26 14 0 18 5 14 20 -3 11 -1 20 5 20 6 0 13
-8 15 -17 3 -12 5 -10 6 7 1 20 3 22 11 10 8 -12 10 -12 10 -1 0 7 9 21 19 30
22 19 18 66 -6 75 -12 5 -13 0 -7 -26 6 -29 5 -31 -9 -19 -9 7 -26 10 -39 6
l-23 -6 24 14 23 14 -31 6 c-21 5 -30 11 -25 18 4 7 -1 18 -11 26 -14 9 -15
13 -4 13 12 0 12 2 -1 10 -21 13 -30 12 -30 -3z m30 -107 c0 -5 -7 -7 -15 -4
-8 4 -15 8 -15 10 0 2 7 4 15 4 8 0 15 -4 15 -10z m-420 -50 c0 -5 -5 -10 -11
-10 -5 0 -7 5 -4 10 3 6 8 10 11 10 2 0 4 -4 4 -10z m210 -100 c0 -5 -4 -10
-10 -10 -5 0 -10 5 -10 10 0 6 5 10 10 10 6 0 10 -4 10 -10z m-166 -316 c27
-10 18 -23 -14 -21 -31 2 -39 12 -17 20 6 3 13 6 14 6 1 1 8 -2 17 -5z"/>
<path d="M5780 1810 c0 -5 5 -10 11 -10 5 0 7 5 4 10 -3 6 -8 10 -11 10 -2 0
-4 -4 -4 -10z"/>
<path d="M5405 1799 c-10 -15 3 -25 16 -12 7 7 7 13 1 17 -6 3 -14 1 -17 -5z"/>
<path d="M2265 1780 c-3 -5 -1 -10 4 -10 6 0 11 5 11 10 0 6 -2 10 -4 10 -3 0
-8 -4 -11 -10z"/>
<path d="M4398 1763 c7 -3 16 -2 19 1 4 3 -2 6 -13 5 -11 0 -14 -3 -6 -6z"/>
<path d="M4870 1750 c-12 -7 -12 -10 3 -16 9 -3 17 -12 17 -20 0 -8 4 -14 9
-14 9 0 2 48 -8 54 -4 3 -13 1 -21 -4z"/>
<path d="M4360 1736 c0 -7 7 -13 15 -13 8 0 15 4 15 8 0 4 -7 9 -15 13 -9 3
-15 0 -15 -8z"/>
<path d="M5760 1720 c20 -13 40 -13 40 0 0 6 -12 10 -27 10 -22 0 -25 -2 -13
-10z"/>
<path d="M5857 1703 c-12 -11 -8 -23 8 -23 8 0 15 -7 15 -15 0 -8 -7 -15 -15
-15 -8 0 -15 -4 -15 -10 0 -5 9 -10 20 -10 15 0 20 7 20 29 0 29 -21 57 -33
44z"/>
<path d="M4887 1683 c-10 -9 -9 -23 1 -23 5 0 9 7 9 15 0 17 -1 18 -10 8z"/>
<path d="M5750 1686 c0 -2 9 -6 20 -9 11 -3 20 -1 20 4 0 5 -9 9 -20 9 -11 0
-20 -2 -20 -4z"/>
<path d="M3100 1662 c0 -5 7 -13 16 -16 10 -4 14 -1 12 6 -5 15 -28 23 -28 10z"/>
<path d="M4030 1644 c0 -8 5 -12 10 -9 6 4 8 11 5 16 -9 14 -15 11 -15 -7z"/>
<path d="M5746 1625 c-6 -18 25 -37 43 -26 9 6 9 10 -1 18 -27 21 -36 22 -42
8z"/>
<path d="M5688 1613 c7 -3 16 -2 19 1 4 3 -2 6 -13 5 -11 0 -14 -3 -6 -6z"/>
<path d="M5840 1560 c0 -11 5 -20 10 -20 6 0 10 9 10 20 0 11 -4 20 -10 20 -5
0 -10 -9 -10 -20z"/>
<path d="M4610 1520 c-8 -5 -10 -10 -5 -10 6 0 17 5 25 10 8 5 11 10 5 10 -5
0 -17 -5 -25 -10z"/>
<path d="M5630 1480 c0 -5 5 -10 10 -10 6 0 10 5 10 10 0 6 -4 10 -10 10 -5 0
-10 -4 -10 -10z"/>
<path d="M4561 1464 c0 -11 3 -14 6 -6 3 7 2 16 -1 19 -3 4 -6 -2 -5 -13z"/>
<path d="M5830 1470 c0 -5 4 -10 9 -10 6 0 13 5 16 10 3 6 -1 10 -9 10 -9 0
-16 -4 -16 -10z"/>
<path d="M4448 1448 c-8 -21 -1 -28 29 -28 15 0 22 4 18 11 -4 6 -13 8 -20 5
-8 -3 -15 3 -17 12 -3 16 -4 16 -10 0z"/>
<path d="M4410 1413 c0 -5 5 -15 10 -23 8 -12 10 -11 10 8 0 12 -4 22 -10 22
-5 0 -10 -3 -10 -7z"/>
<path d="M5705 1400 c4 -6 11 -8 16 -5 14 9 11 15 -7 15 -8 0 -12 -5 -9 -10z"/>
<path d="M4480 1390 c0 -5 5 -10 10 -10 6 0 10 5 10 10 0 6 -4 10 -10 10 -5 0
-10 -4 -10 -10z"/>
<path d="M5722 1338 c3 -7 13 -15 24 -17 16 -3 17 -1 5 13 -16 19 -34 21 -29
4z"/>
<path d="M5695 1230 c3 -5 8 -10 11 -10 2 0 4 5 4 10 0 6 -5 10 -11 10 -5 0
-7 -4 -4 -10z"/>
<path d="M5728 1193 c6 -2 18 -2 25 0 6 3 1 5 -13 5 -14 0 -19 -2 -12 -5z"/>
<path d="M2556 1165 c4 -8 8 -15 10 -15 2 0 4 7 4 15 0 8 -4 15 -10 15 -5 0
-7 -7 -4 -15z"/>
<path d="M5550 1010 c0 -5 -6 -10 -14 -10 -20 0 -26 -12 -20 -37 6 -20 6 -20
32 4 20 18 28 21 35 11 6 -9 7 -7 3 5 -3 10 -6 23 -6 28 0 5 -7 9 -15 9 -8 0
-15 -4 -15 -10z"/>
<path d="M2690 894 c0 -8 5 -12 10 -9 6 3 10 10 10 16 0 5 -4 9 -10 9 -5 0
-10 -7 -10 -16z"/>
<path d="M5180 870 c0 -6 7 -10 15 -10 8 0 15 2 15 4 0 2 -7 6 -15 10 -8 3
-15 1 -15 -4z"/>
<path d="M4590 840 c0 -5 7 -10 15 -10 8 0 15 5 15 10 0 6 -7 10 -15 10 -8 0
-15 -4 -15 -10z"/>
<path d="M4941 764 c0 -11 3 -14 6 -6 3 7 2 16 -1 19 -3 4 -6 -2 -5 -13z"/>
<path d="M5020 770 c0 -5 7 -7 15 -4 8 4 15 8 15 10 0 2 -7 4 -15 4 -8 0 -15
-4 -15 -10z"/>
<path d="M4761 734 c0 -11 3 -14 6 -6 3 7 2 16 -1 19 -3 4 -6 -2 -5 -13z"/>
<path d="M4556 725 c-4 -11 -2 -22 6 -26 17 -11 20 -6 10 21 -8 21 -9 22 -16
5z"/>
<path d="M5225 700 c-3 -5 -1 -10 4 -10 6 0 11 5 11 10 0 6 -2 10 -4 10 -3 0
-8 -4 -11 -10z"/>
<path d="M4135 680 c3 -5 8 -10 11 -10 2 0 4 5 4 10 0 6 -5 10 -11 10 -5 0 -7
-4 -4 -10z"/>
<path d="M4875 670 c3 -5 10 -10 16 -10 5 0 9 5 9 10 0 6 -7 10 -16 10 -8 0
-12 -4 -9 -10z"/>
<path d="M2825 617 c-4 -10 -5 -21 -1 -24 10 -10 18 4 13 24 -4 17 -4 17 -12
0z"/>
<path d="M3036 614 c-14 -36 -8 -43 24 -28 33 17 38 29 14 38 -24 9 -31 7 -38
-10z"/>
<path d="M4310 534 c0 -8 5 -12 10 -9 6 4 8 11 5 16 -9 14 -15 11 -15 -7z"/>
<path d="M3640 519 c-18 -15 -20 -19 -7 -15 10 3 22 6 26 6 4 0 8 7 8 15 0 8
-1 15 -1 15 -1 0 -12 -10 -26 -21z"/>
<path d="M3647 456 c-4 -10 -5 -21 -2 -24 9 -9 17 6 13 25 -3 17 -4 17 -11 -1z"/>
<path d="M916 4034 c-10 -26 -7 -28 12 -11 10 10 22 14 27 10 4 -5 5 -2 1 5
-10 17 -33 15 -40 -4z"/>
<path d="M918 7183 c7 -3 16 -2 19 1 4 3 -2 6 -13 5 -11 0 -14 -3 -6 -6z"/>
<path d="M1400 7180 c0 -5 5 -10 10 -10 6 0 10 5 10 10 0 6 -4 10 -10 10 -5 0
-10 -4 -10 -10z"/>
<path d="M1430 7181 c0 -5 7 -12 16 -15 28 -11 51 -6 51 9 0 10 -11 15 -34 15
-18 0 -33 -4 -33 -9z"/>
<path d="M3210 7175 c0 -8 5 -15 10 -15 6 0 10 7 10 15 0 8 -4 15 -10 15 -5 0
-10 -7 -10 -15z"/>
<path d="M1637 7139 c-4 -14 -10 -18 -19 -14 -9 6 -10 5 -3 -3 12 -13 76 -19
93 -8 9 6 6 13 -12 27 -31 25 -52 24 -59 -2z"/>
<path d="M1780 7141 c-5 -11 -10 -28 -10 -39 0 -27 -22 -43 -69 -49 -23 -3
-38 -9 -36 -13 6 -10 -61 -7 -71 3 -4 4 -1 7 6 7 9 0 8 6 -5 20 -22 24 -75 27
-75 5 0 -14 -11 -19 -37 -16 -7 1 -13 -4 -13 -11 0 -10 -2 -10 -9 1 -5 8 -16
11 -25 8 -13 -5 -18 1 -23 25 -5 27 -7 29 -14 13 -6 -18 -9 -16 -23 15 -8 19
-15 29 -16 21 0 -8 -3 -11 -7 -8 -3 4 -12 2 -20 -4 -8 -7 -13 -8 -13 -1 0 18
-111 23 -175 8 -94 -22 -195 -60 -195 -73 0 -7 -4 -13 -10 -13 -5 0 -10 7 -10
15 0 29 -34 9 -35 -20 0 -5 -8 -9 -18 -9 -9 1 -17 -2 -17 -7 0 -5 7 -9 15 -9
8 0 15 -4 15 -10 0 -5 18 -10 39 -10 22 0 41 -5 44 -12 3 -10 9 -10 26 0 18
10 26 9 48 -5 19 -13 28 -14 31 -5 2 6 15 12 28 12 20 0 24 -4 21 -22 -2 -13
-2 -18 0 -11 2 7 17 10 34 8 20 -2 29 1 29 11 0 8 5 14 11 14 6 0 9 -9 6 -20
-4 -17 0 -20 31 -22 60 -2 62 -3 72 -18 6 -9 4 -20 -3 -29 -10 -12 -9 -14 6
-8 10 4 16 3 13 -1 -7 -12 18 -37 39 -37 11 0 24 -10 30 -22 13 -30 25 -29 25
2 0 14 5 25 10 25 6 0 9 5 8 11 -5 17 92 18 102 0 7 -13 10 -13 25 -1 11 9 19
10 23 3 8 -12 77 -24 131 -23 34 0 121 -35 121 -50 0 -4 21 -15 47 -25 26 -10
56 -27 67 -37 11 -10 34 -18 50 -18 43 0 77 -11 70 -21 -3 -5 1 -9 10 -9 8 0
17 6 19 13 4 10 6 10 6 0 1 -7 8 -13 17 -13 10 0 14 6 10 15 -8 22 11 18 36
-7 20 -20 23 -21 26 -5 3 13 7 15 22 7 47 -25 109 -15 81 13 -8 8 -11 8 -11
-1 0 -10 -5 -10 -22 0 -13 7 -28 11 -34 10 -7 -1 -11 6 -10 15 1 13 -6 18 -23
18 -31 1 -52 31 -31 45 8 5 23 7 33 4 9 -3 17 0 17 6 0 7 -16 10 -47 7 -48 -4
-105 12 -119 35 -4 6 -2 14 4 16 7 2 12 10 12 18 0 8 4 14 9 14 5 0 11 11 13
25 3 15 1 22 -5 18 -6 -4 -8 0 -4 11 4 9 1 25 -5 36 -9 14 -9 22 1 34 11 14
11 16 -3 16 -9 0 -21 10 -26 23 l-9 22 0 -22 c-1 -18 -7 -23 -26 -23 -14 0
-25 5 -25 11 0 8 -14 10 -41 6 -32 -4 -39 -2 -35 9 3 9 -1 14 -13 14 -11 0
-21 -4 -23 -9 -1 -4 -13 -11 -25 -15 -18 -6 -22 -4 -17 8 3 9 12 16 20 16 8 0
14 5 14 10 0 6 -5 9 -12 8 -7 -2 -13 4 -14 12 0 8 -2 23 -2 34 -2 13 -8 17
-22 13 -11 -3 -18 -1 -14 4 3 5 1 9 -5 9 -6 0 -15 -9 -21 -19z m-245 -101 c3
-5 1 -10 -4 -10 -6 0 -11 5 -11 10 0 6 2 10 4 10 3 0 8 -4 11 -10z m-255 -40
c0 -5 -5 -10 -11 -10 -5 0 -7 5 -4 10 3 6 8 10 11 10 2 0 4 -4 4 -10z m370 -6
c0 -2 -7 -4 -15 -4 -8 0 -15 4 -15 10 0 5 7 7 15 4 8 -4 15 -8 15 -10z m-144
-39 c-3 -8 -10 -15 -15 -15 -5 0 -4 11 2 25 12 25 23 16 13 -10z m-116 -29 c0
-2 3 -11 6 -20 4 -11 1 -16 -10 -16 -9 0 -16 2 -16 4 0 2 -3 11 -6 20 -4 11
-1 16 10 16 9 0 16 -2 16 -4z"/>
<path d="M1426 7085 c-3 -9 0 -15 9 -15 8 0 15 7 15 15 0 8 -4 15 -9 15 -5 0
-11 -7 -15 -15z"/>
<path d="M2140 7079 c0 -5 5 -7 10 -4 6 3 10 8 10 11 0 2 -4 4 -10 4 -5 0 -10
-5 -10 -11z"/>
<path d="M2230 7080 c0 -5 6 -10 14 -10 8 0 18 5 21 10 3 6 -3 10 -14 10 -12
0 -21 -4 -21 -10z"/>
<path d="M2276 7045 c-4 -12 -1 -16 14 -13 24 3 28 22 7 26 -8 2 -17 -4 -21
-13z"/>
<path d="M2480 7050 c-13 -8 -12 -10 3 -10 9 0 17 5 17 10 0 12 -1 12 -20 0z"/>
<path d="M2150 7020 c0 -5 5 -10 11 -10 5 0 7 5 4 10 -3 6 -8 10 -11 10 -2 0
-4 -4 -4 -10z"/>
<path d="M2438 7023 c7 -3 16 -2 19 1 4 3 -2 6 -13 5 -11 0 -14 -3 -6 -6z"/>
<path d="M2264 7005 c21 -16 32 -13 21 4 -3 6 -14 11 -23 11 -15 -1 -15 -2 2
-15z"/>
<path d="M2315 7010 c-9 -15 -1 -23 21 -18 15 3 16 4 1 16 -11 9 -17 10 -22 2z"/>
<path d="M3195 6960 c-3 -5 -1 -10 4 -10 6 0 11 5 11 10 0 6 -2 10 -4 10 -3 0
-8 -4 -11 -10z"/>
<path d="M2445 6947 c-8 -4 -15 -11 -15 -15 0 -14 36 -8 54 10 18 16 18 17 -3
15 -12 -1 -28 -5 -36 -10z"/>
<path d="M2731 6914 c0 -11 3 -14 6 -6 3 7 2 16 -1 19 -3 4 -6 -2 -5 -13z"/>
<path d="M4000 6916 c0 -9 5 -16 10 -16 6 0 10 4 10 9 0 6 -4 13 -10 16 -5 3
-10 -1 -10 -9z"/>
<path d="M2410 6901 c0 -4 10 -12 21 -19 15 -10 24 -11 32 -3 8 8 6 11 -6 11
-9 0 -17 4 -17 8 0 5 -7 9 -15 9 -8 0 -15 -3 -15 -6z"/>
<path d="M2250 6880 c0 -5 7 -10 15 -10 8 0 15 -6 15 -12 0 -9 4 -8 10 2 15
23 12 30 -15 30 -14 0 -25 -4 -25 -10z"/>
<path d="M2615 6880 c3 -5 8 -10 11 -10 2 0 4 5 4 10 0 6 -5 10 -11 10 -5 0
-7 -4 -4 -10z"/>
<path d="M3930 6877 c0 -5 7 -6 16 -3 10 4 22 -1 30 -11 12 -16 15 -16 24 -3
17 26 11 31 -30 28 -22 -1 -40 -6 -40 -11z"/>
<path d="M2650 6855 c0 -8 5 -15 10 -15 6 0 10 7 10 15 0 8 -4 15 -10 15 -5 0
-10 -7 -10 -15z"/>
<path d="M1532 6828 c3 -7 13 -15 22 -16 12 -3 17 1 14 10 -3 7 -13 15 -22 16
-12 3 -17 -1 -14 -10z"/>
<path d="M1459 6814 c-13 -16 -11 -17 19 -12 18 2 35 1 38 -4 7 -11 24 -10 24
1 0 5 -8 11 -17 14 -10 2 -25 8 -34 11 -9 4 -22 0 -30 -10z"/>
<path d="M1010 6800 c0 -5 4 -10 9 -10 6 0 13 5 16 10 3 6 -1 10 -9 10 -9 0
-16 -4 -16 -10z"/>
<path d="M2236 6801 c-7 -11 40 -32 59 -25 12 5 12 8 0 20 -15 15 -51 19 -59
5z"/>
<path d="M2395 6800 c4 -6 11 -8 16 -5 14 9 11 15 -7 15 -8 0 -12 -5 -9 -10z"/>
<path d="M3030 6797 c0 -19 16 -31 24 -18 3 5 -1 14 -9 21 -12 10 -15 10 -15
-3z"/>
<path d="M2460 6790 c0 -5 5 -10 10 -10 6 0 10 5 10 10 0 6 -4 10 -10 10 -5 0
-10 -4 -10 -10z"/>
<path d="M2930 6750 c0 -5 5 -10 11 -10 5 0 7 5 4 10 -3 6 -8 10 -11 10 -2 0
-4 -4 -4 -10z"/>
<path d="M2245 6740 c-3 -5 -1 -10 4 -10 6 0 11 5 11 10 0 6 -2 10 -4 10 -3 0
-8 -4 -11 -10z"/>
<path d="M2458 6743 c6 -2 18 -2 25 0 6 3 1 5 -13 5 -14 0 -19 -2 -12 -5z"/>
<path d="M2640 6746 c0 -4 9 -16 20 -28 17 -19 22 -19 50 -8 39 16 38 27 -2
27 -18 0 -41 4 -50 8 -10 4 -18 4 -18 1z"/>
<path d="M2760 6734 c0 -8 11 -14 25 -14 14 0 25 4 25 9 0 5 -11 11 -25 13
-17 4 -25 1 -25 -8z"/>
<path d="M2414 6727 c-6 -7 -13 -26 -17 -44 -5 -25 -3 -30 11 -29 11 1 16 -5
14 -15 -3 -22 65 -32 73 -11 4 11 8 12 20 2 12 -10 15 -10 15 1 1 10 4 8 11
-3 5 -10 15 -18 22 -18 9 0 9 2 -1 8 -7 5 -12 17 -11 28 5 44 -1 54 -29 54
-15 0 -34 -6 -41 -12 -11 -11 -13 -10 -8 3 4 12 -1 16 -21 15 -20 -1 -26 3
-24 17 3 20 1 21 -14 4z m126 -41 c0 -2 -7 -9 -15 -16 -12 -10 -15 -10 -15 4
0 9 7 16 15 16 8 0 15 -2 15 -4z"/>
<path d="M2575 6660 c-3 -5 1 -10 10 -10 9 0 13 5 10 10 -3 6 -8 10 -10 10 -2
0 -7 -4 -10 -10z"/>
<path d="M2565 6570 c-3 -5 -1 -10 4 -10 6 0 11 5 11 10 0 6 -2 10 -4 10 -3 0
-8 -4 -11 -10z"/>
<path d="M2515 6560 c-18 -8 -17 -9 8 -9 16 -1 26 3 22 9 -3 6 -7 10 -8 9 -1
0 -11 -4 -22 -9z"/>
<path d="M5512 6421 c1 -21 5 -28 17 -26 9 2 20 4 24 4 5 1 1 8 -7 17 -9 8
-14 20 -11 25 4 5 -1 9 -9 9 -10 0 -14 -10 -14 -29z"/>
<path d="M5590 6400 c0 -5 4 -10 9 -10 6 0 13 5 16 10 3 6 -1 10 -9 10 -9 0
-16 -4 -16 -10z"/>
<path d="M604 6335 c-17 -13 -17 -14 -2 -15 9 0 20 5 23 11 11 17 0 20 -21 4z"/>
<path d="M775 6310 c3 -5 8 -10 11 -10 2 0 4 5 4 10 0 6 -5 10 -11 10 -5 0 -7
-4 -4 -10z"/>
<path d="M410 6300 c0 -5 5 -10 10 -10 6 0 10 5 10 10 0 6 -4 10 -10 10 -5 0
-10 -4 -10 -10z"/>
<path d="M5826 6303 c-11 -11 -6 -23 9 -23 8 0 15 4 15 9 0 13 -16 22 -24 14z"/>
<path d="M921 6284 c0 -11 3 -14 6 -6 3 7 2 16 -1 19 -3 4 -6 -2 -5 -13z"/>
<path d="M1350 6280 c0 -5 4 -10 10 -10 5 0 7 -7 4 -15 -4 -8 -1 -15 6 -15 6
0 9 4 5 9 -3 5 -1 12 5 16 6 4 8 11 5 16 -8 12 -35 12 -35 -1z"/>
<path d="M1396 6261 c-4 -7 -5 -15 -2 -18 3 -3 1 -12 -6 -20 -17 -21 -2 -27
31 -13 17 7 38 10 47 6 23 -9 37 3 23 20 -6 8 -26 14 -44 14 -19 0 -35 5 -37
12 -3 9 -6 9 -12 -1z m67 -28 c-7 -2 -21 -2 -30 0 -10 3 -4 5 12 5 17 0 24 -2
18 -5z"/>
<path d="M1600 6199 c0 -5 5 -7 10 -4 6 3 10 8 10 11 0 2 -4 4 -10 4 -5 0 -10
-5 -10 -11z"/>
<path d="M5838 6183 c6 -2 18 -2 25 0 6 3 1 5 -13 5 -14 0 -19 -2 -12 -5z"/>
<path d="M1770 6136 c0 -8 5 -18 10 -21 6 -3 10 3 10 14 0 12 -4 21 -10 21 -5
0 -10 -6 -10 -14z"/>
<path d="M1815 6140 c3 -5 8 -10 11 -10 2 0 4 5 4 10 0 6 -5 10 -11 10 -5 0
-7 -4 -4 -10z"/>
<path d="M1995 6140 c3 -5 10 -10 16 -10 5 0 9 5 9 10 0 6 -7 10 -16 10 -8 0
-12 -4 -9 -10z"/>
<path d="M2130 6120 c0 -5 5 -10 10 -10 6 0 10 5 10 10 0 6 -4 10 -10 10 -5 0
-10 -4 -10 -10z"/>
<path d="M2170 6070 c0 -5 7 -10 15 -10 8 0 15 5 15 10 0 6 -7 10 -15 10 -8 0
-15 -4 -15 -10z"/>
<path d="M6661 5321 c-8 -6 -9 -11 -3 -15 6 -3 14 -1 17 5 9 14 2 20 -14 10z"/>
<path d="M6875 5030 c-3 -5 -1 -10 4 -10 6 0 11 5 11 10 0 6 -2 10 -4 10 -3 0
-8 -4 -11 -10z"/>
<path d="M1600 5019 c0 -5 5 -7 10 -4 6 3 10 8 10 11 0 2 -4 4 -10 4 -5 0 -10
-5 -10 -11z"/>
<path d="M7010 4881 c0 -32 11 -51 29 -51 10 0 20 3 24 6 9 10 -4 34 -19 34
-8 0 -14 7 -14 15 0 8 -4 15 -10 15 -5 0 -10 -9 -10 -19z"/>
<path d="M978 4863 c7 -3 16 -2 19 1 4 3 -2 6 -13 5 -11 0 -14 -3 -6 -6z"/>
<path d="M7060 4811 c0 -5 6 -12 13 -14 9 -4 8 -8 -3 -16 -13 -10 -13 -11 0
-11 8 0 21 9 27 20 11 16 10 18 -2 14 -8 -4 -15 -1 -15 5 0 6 -4 11 -10 11 -5
0 -10 -4 -10 -9z"/>
<path d="M7060 4715 c0 -19 4 -35 10 -35 5 0 9 16 8 35 -1 19 -5 35 -10 35 -4
0 -8 -16 -8 -35z"/>
<path d="M7095 4671 c-7 -12 12 -24 25 -16 11 7 4 25 -10 25 -5 0 -11 -4 -15
-9z"/>
<path d="M7242 4618 c2 -6 10 -14 16 -16 7 -2 10 2 6 12 -7 18 -28 22 -22 4z"/>
<path d="M7025 4370 c-3 -5 -1 -10 4 -10 6 0 11 5 11 10 0 6 -2 10 -4 10 -3 0
-8 -4 -11 -10z"/>
<path d="M7028 4313 c7 -3 16 -2 19 1 4 3 -2 6 -13 5 -11 0 -14 -3 -6 -6z"/>
<path d="M455 3330 c-3 -5 -1 -10 4 -10 6 0 11 5 11 10 0 6 -2 10 -4 10 -3 0
-8 -4 -11 -10z"/>
<path d="M390 3260 c0 -5 5 -10 10 -10 6 0 10 5 10 10 0 6 -4 10 -10 10 -5 0
-10 -4 -10 -10z"/>
<path d="M310 3170 c-11 -7 -12 -12 -4 -20 8 -8 13 -6 17 9 3 12 4 21 4 21 -1
0 -9 -5 -17 -10z"/>
<path d="M2970 49 c0 -5 5 -7 10 -4 6 3 10 8 10 11 0 2 -4 4 -10 4 -5 0 -10
-5 -10 -11z"/>
<path d="M3020 40 c0 -5 7 -7 15 -4 8 4 15 8 15 10 0 2 -7 4 -15 4 -8 0 -15
-4 -15 -10z"/>
</g>
</svg>
